<?xml version="1.0" encoding="utf-8"?>
<!-- Generator: Adobe Illustrator 25.2.0, SVG Export Plug-In . SVG Version: 6.00 Build 0)  -->
<svg version="1.1" id="Capa_1" xmlns="http://www.w3.org/2000/svg" xmlns:xlink="http://www.w3.org/1999/xlink" x="0px" y="0px"
	 viewBox="0 0 1080 1080" style="enable-background:new 0 0 1080 1080;" xml:space="preserve">
<style type="text/css">
	.st0{fill:#FFFFFF;}
	.st1{opacity:0.59;fill:#FFFFFF;}
	.st2{fill:#FFFFFF;stroke:#FFFFFF;stroke-width:41.511;stroke-miterlimit:10;}
	.st3{fill:#3F5220;}
	.st4{fill:#87BD24;}
	.st5{fill:#73962E;}
	.st6{fill:#ED6C16;}
	.st7{fill:#EB5F0A;}
	.st8{fill:#E64610;}
	.st9{fill:#6FA02E;}
	.st10{fill:#AACA3A;}
	.st11{fill:#E94A48;}
	.st12{fill:#EF7E7F;}
	.st13{fill:#CFBFC0;}
	.st14{fill:#ECC44B;}
	.st15{fill:#753A14;}
	.st16{fill:#924C28;}
	.st17{fill:#DECCCD;}
</style>
<g>
	<g>
		<g>
			<g>
				<g>
					<g>
						<g>
							<g>
								<path class="st0" d="M870.9,327.4c-3,0-5.9-0.6-8.7-1.7c-6-2.5-11.2-6.8-15.2-12.3c-14.8-1.2-32.5-9.5-39.1-23.8
									c-3.3-7.3-1.7-13.7,0-20c1-3.7,2.4-8.5,4.1-14.7c8.9-31,27.3-95.5,24.3-131.2c-0.6-6.9,2.3-13.7,7.7-18
									c3.7-3,8.3-4.5,12.9-4.5c2.1,0,4.3,0.3,6.3,1c8.3,2.7,23.2,10.3,46.6,22.7c12.7,6.7,30.1,15.8,34.4,17.3
									c3.1,1,5.9,2.8,8.1,5.1c0.9-0.1,1.9-0.2,2.8-0.2c2.2,0,4.5,0.4,6.6,1.1c5.2,1.8,13.1,4.4,20.1,6.8l9.7,3.2
									c6.2,2.1,11.1,7,13.1,13.2s1,13.1-2.8,18.4c-19,26.9-45,59.4-69.3,86.9c-11.8,13.4-22.5,24.6-30.8,32.6
									C887.8,322.8,880,327.4,870.9,327.4C870.9,327.4,870.9,327.4,870.9,327.4z"/>
								<path class="st0" d="M857,121.9c13.7,4.4,68.3,35.7,80.7,39.8c-12.5,28-17.8,50.1-42.8,83.9c33.8-31.8,43.3-49,60.4-77.9
									c7.9,2.7,21.9,7.3,29.9,10C946,233.1,881.3,306.6,870.9,306.6c-0.2,0-0.4,0-0.6-0.1c-5.3-2.2-9.3-8.3-11.1-15.7
									c-2.5,1.3-5.4,1.9-8.5,1.9c-9.9,0-21.1-5.9-23.8-11.9C825.3,277.5,861.6,175.5,857,121.9 M857,80.4c-9.3,0-18.4,3.1-25.9,9
									c-10.9,8.7-16.7,22.2-15.5,36c2.7,32-15.7,96.3-23.6,123.7c-1.8,6.2-3.2,11.2-4.2,15.1c-1.9,7.4-5.2,19.8,1.2,33.8
									c5.3,11.6,15.1,21.3,28.2,28c4.7,2.4,11.3,5.1,19.1,6.7c5.2,5.1,11.1,9.2,17.8,12c5.3,2.2,10.9,3.4,16.7,3.4
									c18.8,0,32.7-11.8,45.4-23.8c8.8-8.4,19.9-20.1,32-33.9c24.8-28.1,51.3-61.2,70.7-88.7c7.6-10.7,9.7-24.4,5.6-36.9
									c-4.1-12.5-13.8-22.3-26.3-26.5c-2.7-0.9-6.2-2.1-9.9-3.3c-6.9-2.3-14.7-4.9-19.9-6.7c-3-1-6-1.7-9-2
									c-2.6-1.6-5.3-2.9-8.2-3.9c-4.6-1.9-20.9-10.4-31.8-16.1c-24.4-12.8-39.8-20.8-49.9-24.1C865.5,81.1,861.3,80.4,857,80.4
									L857,80.4z"/>
							</g>
							<path class="st0" d="M955.3,167.8c-17.1,29-26.7,46.1-60.4,77.9c25-33.8,30.3-55.9,42.8-83.9c-12.4-4.2-67-35.4-80.7-39.8
								c4.6,53.6-31.7,155.6-30.2,159c3.6,7.8,21.8,15.5,32.3,10c1.8,7.3,5.8,13.4,11.1,15.7c8.1,3.4,74.8-72.2,114.9-128.8
								C977.2,175.1,963.3,170.4,955.3,167.8z"/>
							<path class="st0" d="M955.3,167.8c-17.1,29-26.7,46.1-60.4,77.9c25-33.8,30.3-55.9,42.8-83.9c-2.3-0.8-6.2-2.6-11-4.9
								c-0.9,1.2-1.8,2.4-2.7,3.6c-6,25.7-11,50-41.4,63c-13.4,5.7-27.8,7.4-42,6.1c-7.5,28.2-14.5,49.9-13.8,51.4
								c3.6,7.8,21.8,15.5,32.3,10c1.8,7.3,5.8,13.4,11.1,15.7c8.1,3.4,74.8-72.2,114.9-128.8C977.2,175.1,963.3,170.4,955.3,167.8z
								"/>
							<g>
								<path class="st0" d="M807.5,504.4c-10.4,20.7-25.3,38.4-40.6,60.1c-14,19.9-28.3,44.8-45.2,64.9
									c-30.7,36.4-60.2,68.5-89.3,95c-9.2,8.3-53.6,40.4-55.7,2.3c-0.8-14.1,7.3-27.7,12.4-38.9c8.6-18.8,18.6-37.3,27-57.4
									c8.3-19.8,14.7-41,22.5-61.3c8.3-21.8,20.3-41.6,29.3-62.1c16.7-37.9,32.9-72.9,47.3-112.5c7.2-19.7,20.4-35.3,29.2-55.1
									c7.8-17.5,9.6-38.3,22.1-53.4c22.4-27.2,72.5-32.4,103.2-15.9c21.6,11.6,31.5,33.8,34.3,57.4c2.7,22.8-8.5,37.4-21.4,54.9
									c-15.7,21.3-24.7,48.9-38.7,71.2C831.7,473.2,816.3,486.9,807.5,504.4z"/>
								<g>
									<path class="st0" d="M591.5,765.7c-15.5,0-34.1-9.9-35.7-37.9c-1-17.3,6.4-32.5,11.8-43.7c0.8-1.8,1.7-3.4,2.4-5.1
										c3.4-7.3,7-14.7,10.5-21.9c5.5-11.3,11.2-22.9,16.2-34.8c2.1-5.1,4-9.9,5.7-14.7c0.5-1.5,1.1-2.9,1.5-4.1
										c1.9-5.2,3.7-10.5,5.5-15.7c3-8.6,6.1-17.5,9.5-26.4c5.3-13.8,11.8-26.5,18-38.8c4.2-8.4,8.3-16.3,11.8-24.2
										c2.7-6.2,5.5-12.5,8.2-18.6c5-11.4,9.8-22.1,14.5-33.1c0.1-0.1,0.1-0.3,0.2-0.4c1.2-2.5,2.3-5.1,3.4-7.8c0.4-1,0.8-2,1.3-3
										c7.5-17.8,13.6-33.1,19.1-48.2c4.6-12.8,11.1-23.5,17.4-34c4.6-7.6,8.9-14.9,12.4-22.6c2.3-5.1,4.1-11.1,6-17.4
										c4-13.1,8.4-27.9,19-40.7c16.9-20.5,46.3-32.8,78.5-32.8c18.6,0,36.1,4.1,50.5,11.8c25.4,13.6,41.1,39,45.1,73.2
										c3.6,30.4-11.2,50.6-24.2,68.3l-1,1.3c-7.7,10.5-13.9,23.3-20.3,36.7c-5.3,11.1-10.8,22.5-17.5,33.2
										c-6.1,9.8-12.9,18.2-18.9,25.7c-6.8,8.4-12.7,15.7-16.5,23.4c-8.3,16.6-18.9,30.9-30,46c-4,5.4-8.1,10.9-12.1,16.7
										c-2,2.9-4,5.7-5.9,8.6c0,0.1-0.1,0.1-0.1,0.2c-3.3,4.9-5.8,8.7-8.1,12.2c-9.3,14.4-20,30.7-32.1,45.2
										c-17.4,20.6-33.2,38.6-48.5,54.7c0,0-1.4,1.5-2.1,2.2c-1.2,1.3-2.4,2.5-3.6,3.7c-12.7,13.3-25.1,25.5-37,36.4
										C646,740.1,617.4,765.7,591.5,765.7z"/>
									<path class="st0" d="M828.9,260.7c14.6,0,29.1,3.1,40.7,9.4c21.7,11.6,31.5,33.8,34.3,57.4c2.7,22.9-8.5,37.4-21.3,54.9
										c-15.7,21.4-24.8,48.9-38.7,71.2c-12.2,19.5-27.6,33.3-36.4,50.8c-10.4,20.7-25.3,38.4-40.6,60.1c-2.1,3-4.2,6-6.3,9.2
										c-2.7,4-5.5,8.2-8.3,12.5c-9.5,14.6-19.5,29.9-30.7,43.2c-16.2,19.3-32,37.3-47.7,53.9c-1.9,2-3.7,3.9-5.5,5.8
										c-12.1,12.7-24.1,24.6-36.1,35.4c-5.9,5.4-26.4,20.5-40.9,20.5c-8,0-14.2-4.7-14.9-18.3c-0.8-14.1,7.3-27.7,12.4-38.9
										c8.6-18.7,18.6-37.3,27-57.4c2.1-5.1,4.2-10.3,6.1-15.6c0.4-1.3,0.9-2.5,1.4-3.8c5-13.9,9.7-28.1,15-41.9
										c8.4-21.8,20.4-41.6,29.4-62c7.8-17.7,15.5-34.8,22.8-51.9c1.7-3.7,3.3-7.5,4.9-11.3c6.8-16,13.3-32.2,19.5-49.3
										c7.2-19.7,20.4-35.4,29.2-55.2c7.8-17.5,9.7-38.3,22.1-53.4C780.3,269.1,804.9,260.7,828.9,260.7 M828.9,219.2v41.5V219.2
										c-17.3,0-34.6,3.1-50,9.1c-18,7-33.4,17.8-44.5,31.3c-13.2,16-18.6,33.7-22.8,47.9c-1.7,5.7-3.3,11-5.1,14.9
										c-2.9,6.6-7,13.2-11.2,20.3c-6.5,10.7-13.8,22.9-19.1,37.6c-5.4,14.7-11.3,29.7-18.7,47.1c-0.4,1-0.9,2-1.3,3
										c-1.1,2.6-2.2,5.1-3.2,7.3c-0.1,0.3-0.3,0.6-0.4,0.9c-4.7,10.8-9.4,21.5-14.4,32.8c-2.7,6.1-5.5,12.4-8.3,18.7
										c-3.3,7.4-7.2,15-11.3,23.1c-6.5,12.8-13.2,25.9-18.9,40.7c-3.5,9.1-6.7,18.2-9.7,27c-1.8,5.3-3.6,10.3-5.4,15.2
										c-0.5,1.2-1.1,2.7-1.6,4.4c-1.6,4.4-3.4,8.9-5.4,13.7c-4.7,11.2-10,22.1-15.6,33.6c-3.6,7.3-7.2,14.8-10.7,22.4
										c-0.6,1.4-1.4,3-2.2,4.7c-6,12.4-15.2,31.2-13.9,53.9c0.9,16.3,6.2,29.7,15.6,40c10.3,11.3,24.8,17.5,40.8,17.5
										c13.9,0,28.4-4.5,44.5-13.9c10.3-6,19.3-12.9,24.2-17.3c0,0,0.1-0.1,0.1-0.1c12.2-11.1,25-23.7,38-37.3
										c1.3-1.3,2.5-2.6,3.7-3.8c0.6-0.7,1.3-1.4,1.9-2c0.1-0.1,0.2-0.2,0.2-0.3c15.5-16.5,31.7-34.7,49.3-55.6
										c13-15.4,24-32.3,33.7-47.3c2.3-3.5,4.7-7.2,8-12c0.1-0.1,0.2-0.3,0.3-0.4c1.8-2.7,3.6-5.3,5.5-8.1
										c3.9-5.6,7.9-11,11.8-16.3c11.2-15.1,22.7-30.8,31.9-49l0,0c2.9-5.7,8.1-12.2,14.2-19.7c6.3-7.9,13.5-16.8,20.3-27.7
										c7.3-11.6,13.1-23.6,18.6-35.2c6.1-12.6,11.8-24.5,18.3-33.4c0,0,0,0,0,0l1-1.3c7.1-9.7,14.5-19.8,20.2-32.2
										c7.5-16.4,10.1-33.1,7.9-50.9c-4.8-40.7-24.7-72.3-55.9-89C871.8,224.2,850.9,219.2,828.9,219.2L828.9,219.2z"/>
								</g>
								<path class="st0" d="M888,375c-1.7,2.4-3.5,4.9-5.4,7.4c-2.9,4-5.6,8.1-8.1,12.5c-11.1,18.9-19.3,40.6-30.6,58.8
									c-12.2,19.5-27.6,33.2-36.4,50.7c-1.5,3.1-3.2,6.1-4.9,9c-3.9,6.8-8.3,13.3-13,19.8c-7.1,10-14.8,20-22.7,31.2
									c-2,3-4.2,6-6.2,9.2c-2.7,4-5.5,8.2-8.3,12.5c-9.5,14.6-19.5,29.9-30.7,43.2c-16.2,19.3-32.1,37.2-47.7,53.9
									c-1.9,1.9-3.7,3.9-5.5,5.8c-12.1,12.7-24.1,24.5-36.1,35.4c-9.2,8.3-53.6,40.4-55.8,2.3c-0.8-14.2,7.2-27.8,12.4-38.9
									c8.7-18.7,18.6-37.3,27-57.3c2.1-5.2,4.2-10.3,6.2-15.6c0.4-1.3,0.9-2.5,1.4-3.8c5-13.9,9.6-28.1,15-41.9
									c8.4-21.8,20.4-41.6,29.4-62c7.8-17.7,15.5-34.8,22.8-51.9c1.7-3.7,3.3-7.5,4.9-11.3c5.5-13,10.9-26.1,16-39.8
									c1.2-3.1,2.4-6.3,3.5-9.4c1.8-5.1,4.1-9.9,6.5-14.5c7.2-13.5,16.1-25.9,22.7-40.6c7.8-17.5,9.7-38.3,22.1-53.4
									c22.4-27.2,72.5-32.4,103.1-15.9c21.7,11.6,31.5,33.8,34.4,57.4C906.3,347,898.4,360.5,888,375z"/>
								<path class="st0" d="M900.4,310.3c-0.9,2.2-1.7,4.2-2.4,5.8c-7.2,16-13.6,32.3-20.8,48.2c-13.6,30.1-34.7,61-60.7,81.7
									c-26.6,21.1-66.2,33.1-98.7,19.1c-9.5-4.1-17.4-10-24.1-17.1c-1,2.4-2,4.8-3.1,7.1c-7.3,17.1-15.1,34.2-22.8,51.9
									c-9,20.4-21,40.2-29.4,62c-5.3,13.9-9.9,28.1-15,41.9c-0.5,1.3-1,2.5-1.4,3.8c-1.9,5.3-4,10.5-6.2,15.6
									c-8.3,20.1-18.3,38.6-27,57.3c-5.1,11.2-13.2,24.8-12.4,38.9c2.2,38.1,46.6,6,55.8-2.3c11.9-10.9,24-22.7,36.1-35.4
									c1.8-1.9,3.6-3.9,5.5-5.8c15.7-16.6,31.5-34.6,47.7-53.9c11.2-13.3,21.2-28.6,30.7-43.2c2.8-4.3,5.6-8.5,8.3-12.5
									c2.1-3.2,4.2-6.2,6.2-9.2c7.9-11.2,15.7-21.2,22.7-31.2c4.7-6.6,9.1-13.1,13-19.8c1.7-3,3.4-6,4.9-9
									c8.8-17.5,24.2-31.2,36.4-50.7c11.3-18.1,19.5-39.8,30.6-58.8c2.5-4.3,5.2-8.5,8.1-12.5c1.8-2.5,3.7-5,5.4-7.4
									c10.4-14.4,18.3-27.9,15.9-47.4C903.2,321.6,902.1,315.8,900.4,310.3z"/>
								<path class="st0" d="M874.5,394.9c-2.8-1.3-5.6-2.8-8.3-4.5c-26-16.5-35.8-37.5-35.8-37.5c18.9,5,29.4,6.7,49.2,17.3
									c3.1,1.6,5.8,3.2,8.5,4.8L874.5,394.9z"/>
								<path class="st0" d="M781.1,422.7c-2.3-0.1-34.6-2.3-69.5-18.8c1.2-3.1,2.4-6.3,3.5-9.4c1.8-5.1,4.1-9.9,6.5-14.5
									c0.8,0.3,1.6,0.6,2.5,1C744.3,388.8,759.6,404.1,781.1,422.7z"/>
								<path class="st0" d="M802.6,513.4c-3.9,6.8-8.3,13.3-13,19.8c-18.7-11.8-32.7-26-48-41.9
									C741.6,491.4,764.8,491.4,802.6,513.4z"/>
								<g>
									<path class="st0" d="M633.8,571.1c-2.7,7.5-5.7,14.9-8.9,22.3c28.5,15.2,65.7,34.4,65.7,34.4S666.1,595.3,633.8,571.1z"/>
								</g>
							</g>
						</g>
					</g>
				</g>
			</g>
		</g>
		<g>
			<path class="st0" d="M930.9,141.4c0,0-8.4,56.6-36,104.3c0,0,42.7-25.9,73.4-87.4L930.9,141.4z"/>
		</g>
	</g>
	<g>
		<g>
			<path class="st0" d="M329.5,754.7c-4.8,0-9.6-1.7-13.5-5c-27.4-23.6-40.2-32-45.4-34.8c-14.9-8.2-28.3-12.1-42.1-12.1
				c-1.8,0-3.6,0.1-5.4,0.2c-11.9,0.8-41.1,7.3-51.4,9.7c-1.6,0.4-3.2,0.6-4.8,0.6c-5.6,0-11-2.3-15-6.4c-5.1-5.3-7-12.9-5-20
				l6.4-22.9c2.2-7.7,8.5-13.4,16.4-14.8c1.6-0.3,8.1-1.4,16.7-2.7c-3.4-2.3-6.8-4.6-10.1-6.7c-8.2-5.3-11.6-15.6-8.1-24.8l9.2-24.4
				c2.4-6.4,7.8-11.1,14.4-12.8c1.7-0.4,3.3-0.6,5-0.6c3.9,0,7.7,1.1,11,3.2l16-19.9c4-4.9,9.9-7.8,16.2-7.8c0.7,0,1.4,0,2.1,0.1
				c1.8,0.2,3.6,0.6,5.3,1.3c-0.6-4.4,0.2-9,2.4-13c3.4-6,9.5-9.9,16.4-10.5l26.5-2.2c0.6-0.1,1.3-0.1,1.9-0.1
				c5.3,0,10.4,1.9,14.3,5.6c4.3,4.1,6.6,9.7,6.3,15.7c0,1,0.2,7.9,2.5,21.8c0.4,2.4,0.7,5,1.1,7.7c1.4,11.6,3.4,27.4,13.2,35.9
				c8.3,7.2,27.6,21.5,54.5,40.3c8.6,6,11.4,17.5,6.4,26.8c-13.1,24.6-29.5,47-48.6,66.5C340.3,752.6,334.9,754.7,329.5,754.7z"/>
			<path class="st0" d="M294.6,548.9c0,0-0.2,7.8,2.8,25.8c2.1,12.3,2.4,39.6,21.1,55.8c11.4,9.9,37.4,28.5,56.2,41.6
				c-12,22.4-26.8,43.1-45.1,61.8c-15.8-13.6-36-30.1-48.9-37.3c-20.4-11.3-37.5-14.7-52.2-14.7c-2.3,0-4.6,0.1-6.8,0.2
				c-16.2,1.1-54.7,10.2-54.7,10.2l6.4-22.9c0,0,39.5-7,57.9-7c0.9,0,1.8,0,2.6,0.1c0.2,0,0.3,0,0.4,0c15.5,0-46.7-40.4-46.7-40.4
				l9.2-24.4c0,0,35.5,31.3,45,31.3c0.7,0,1.3-0.2,1.7-0.6c5.6-5.5-21.3-33-21.3-33l17.8-22.2c0,0,17.2,33.8,33.2,37.3
				c1.2,0.3,2.3,0.4,3.3,0.4c11.6,0,5-18.3,0.9-33.5c-4.4-16.5-9.4-26.4-9.4-26.4L294.6,548.9 M295.2,507.4c-1.4,0-2.7,0.1-4.1,0.2
				l-26.5,2.2c-13.9,1.2-26.4,8.9-33.1,21.1c-0.4,0.7-0.7,1.4-1.1,2.1c-8.9,2.1-16.9,7.1-22.8,14.4l-7.3,9.1
				c-1.2-0.1-2.3-0.1-3.5-0.1c-3.3,0-6.7,0.4-10,1.2c-13.2,3.3-24,12.8-28.8,25.6l-9.2,24.4c-3.6,9.5-3.5,19.7-0.3,28.7
				c-7.2,5.4-12.6,13-15.1,22l-6.4,22.9c-4,14.1-0.2,29.3,10,40c7.9,8.3,18.8,12.8,30,12.8c3.2,0,6.4-0.4,9.5-1.1
				c14.2-3.3,39.3-8.6,48.1-9.2c1.3-0.1,2.7-0.1,4-0.1c0,0,0,0,0,0c6.4,0,16.7,1,32.1,9.5c2.8,1.6,14.2,8.5,41.9,32.4
				c7.8,6.7,17.5,10.1,27.1,10.1c10.8,0,21.6-4.2,29.7-12.5c20.5-21,38-44.9,52-71.3c9.9-18.5,4.4-41.5-12.8-53.6
				c-25.9-18.1-45.2-32.3-52.8-38.9c-3.7-3.2-5.4-16.4-6.2-22.7c-0.4-3-0.7-5.8-1.2-8.6c-1.8-10.6-2.1-16.4-2.2-18
				c0.7-11.9-3.8-22.8-12.3-31.2C316.2,511,305.9,507.4,295.2,507.4L295.2,507.4z M294.6,590.5L294.6,590.5L294.6,590.5L294.6,590.5
				z"/>
		</g>
		<path class="st0" d="M280.7,696.7c12.8,7.1,33.1,23.7,48.9,37.3c18.3-18.7,33.2-39.4,45.1-61.8c-18.7-13.1-44.8-31.7-56.2-41.6
			c-18.7-16.2-19-43.5-21.1-55.8c-3-18-2.8-25.8-2.8-25.8l-26.5,2.2c0,0,5,9.9,9.4,26.4c4.4,16.5,11.8,36.6-4.2,33.1
			c-16-3.5-33.2-37.3-33.2-37.3l-17.8,22.2c0,0,26.9,27.5,21.3,33c-5.6,5.5-46.7-30.7-46.7-30.7l-9.2,24.4c0,0,63.3,41.1,46.3,40.4
			s-60.5,6.9-60.5,6.9l-6.4,22.9c0,0,38.5-9.1,54.7-10.2C237.8,681.1,257,683.6,280.7,696.7z"/>
		<g>
			<path class="st0" d="M106.6,738.9c-5.4,0-10.4-0.6-14.8-1.7c-16.2-4.1-30.5-13.5-41.4-27c-15.2-18.8-21.8-37.8-19.8-56.6
				c1.5-13.3,6.9-27.8,16.1-38.4c-8-17.7-5.8-38.6,2.8-54.6c2.6-4.8,5.9-9,9.7-12.6c-1.9-14.3-0.2-28.9,5.2-41.3
				c13-30.2,41.1-50.4,69.8-50.4c5.8,0,11.4,0.8,17,2.3c5.6-7.4,12.5-13.4,20.5-17.6c8.7-4.5,18-6.9,27.6-6.9
				c15.1,0,28.1,5.7,37.7,11.7c7.8-5.5,17.1-8.4,27.2-8.4c14.2,0,28.8,6,40.2,16.4c26.9,24.7,31,68.7,9.1,98
				c-13.6,18.2-35.9,29-59.8,29c0,0,0,0,0,0c-4.2,0-8.3-0.3-12.3-1c-7.1,16-18.7,29.5-33.4,38.2c2.4,13.6,0.3,28.4-6.5,41.3
				c-8.7,16.4-20.5,27.6-34.3,32.7c-1.9,11.5-6.9,22.3-12.3,28.4C143.1,734.1,121.5,738.9,106.6,738.9z"/>
			<path class="st0" d="M199.5,454.9c22.4,0,40,19.4,40,19.4c5.9-11.3,15.2-16,24.9-16c9.2,0,18.8,4.2,26.1,11
				c19,17.5,22,49.6,6.5,70.3c-9.9,13.3-26.6,20.7-43.2,20.7c-9.1,0-18.2-2.2-26.1-6.9c-2.7,19.7-14.3,38.3-31.7,47.9
				c-4.6,2.5-9.6,4.4-14.8,5.5c0.2,0.2,0.3,0.4,0.5,0.6c8.7,12,8.4,29.4,1.4,42.5c-7.4,14-18.8,24.8-33.9,24.8
				c-1.1,0-2.3-0.1-3.5-0.2c4.1,8.6-0.7,26-6.3,32.4c-6.5,7.3-20.9,11.2-32.8,11.2c-3.5,0-6.9-0.4-9.7-1.1
				c-12.2-3.1-22.5-10.1-30.4-19.9c-9.6-11.9-17-26-15.3-41.3c1.7-15.2,10.7-33.5,25.8-35.5c-18.3-13.1-16.9-35.8-9.3-49.9
				c3.4-6.4,8.8-10.6,15-12.9c-4.9-14.1-4.6-30.2,0.7-42.6c8.9-20.7,28.5-37.9,50.8-37.9c8.5,0,17.4,2.5,26.2,8.3
				c3.3-10.1,10.1-20.3,20.9-25.9C187.7,456.2,193.7,454.9,199.5,454.9 M199.5,413.4C199.5,413.4,199.5,413.4,199.5,413.4
				c-13,0-25.5,3.1-37.2,9.2c-6.9,3.6-13.1,8.1-18.7,13.4c-3.1-0.3-6.2-0.5-9.3-0.5c-19.9,0-39.3,6.9-56,20.1
				c-14.2,11.1-25.5,26-32.9,42.9c-5.6,13-8.2,27.6-7.6,42.3c-2.4,3.1-4.6,6.4-6.5,9.9c-8.2,15.1-11.7,32.7-9.8,49.5
				c0.4,3.9,1.1,7.7,2.1,11.4c-7.2,11.6-12,25.6-13.6,39.7c-2.7,24.4,5.5,48.6,24.3,71.9c13.7,17,31.9,28.8,52.4,34.1
				c6.1,1.6,12.9,2.4,20,2.4c20.1,0,47.4-6.6,63.9-25.2c7.9-8.9,12.3-19.8,14.7-27.8c13.9-8,25.9-20.7,34.7-37.4
				c6.6-12.5,10-26.6,9.9-40.9c9.3-7.4,17.3-16.4,23.6-26.6c0.1,0,0.2,0,0.4,0c30.4,0,59-14,76.4-37.3c13.6-18.2,19.9-41.3,17.7-65
				c-2.2-23.7-12.6-45.2-29.4-60.7c-15.1-13.9-34.9-21.9-54.2-21.9c-9.6,0-18.7,1.9-27.1,5.5C226.7,417.2,213.9,413.4,199.5,413.4
				L199.5,413.4L199.5,413.4z"/>
		</g>
		<path class="st0" d="M239.5,474.3c0,0-27.8-30.6-58-14.9c-10.8,5.6-17.6,15.8-20.9,25.9c-32.1-20.9-64.7,1.1-77,29.7
			c-5.4,12.4-5.7,28.4-0.7,42.6c-6.2,2.3-11.5,6.5-15,12.9c-7.6,14.1-9,36.8,9.3,49.9c-15.2,2-24.2,20.2-25.8,35.5
			c-1.7,15.2,5.7,29.3,15.3,41.3c7.9,9.8,18.2,16.8,30.4,19.9c12.2,3.1,34.1-0.7,42.5-10.2c5.7-6.4,10.5-23.8,6.3-32.4
			c17,1.8,29.5-9.5,37.5-24.6c6.9-13.1,7.2-30.6-1.4-42.5c-0.2-0.2-0.3-0.4-0.5-0.6c5.2-1.1,10.2-2.9,14.8-5.5
			c17.4-9.6,29-28.3,31.7-47.9c22.1,13.2,53.8,7,69.3-13.7c15.4-20.7,12.4-52.8-6.5-70.3C275.4,455.3,250.9,452.2,239.5,474.3z"/>
		<path class="st0" d="M132.6,603.3c8.9,24.4,6.4,48.4-7.9,65.8c-15.1,18.4-62.4,15.6-73.6-8.4c0.2,13.4,6.9,25.8,15.5,36.4
			c7.9,9.8,18.2,16.8,30.4,19.9s34.1-0.7,42.5-10.2c5.7-6.4,10.5-23.8,6.3-32.4c17,1.8,29.5-9.5,37.5-24.6
			c5.4-10.2,6.7-23.1,2.9-33.9C167.4,615.8,149.2,612.1,132.6,603.3z"/>
		<path class="st0" d="M181.3,606.6c-7.1,1.1-28,5.6-46.5-1.8c0,0,21.4,31.7,52.6,24.9c31.3-6.8,32.6-29.6,32.6-29.6
			S188.8,605.5,181.3,606.6z"/>
		<path class="st0" d="M160.6,485.3c0,0,21.5,13,27.8,25.1c0,0-1-38.1-31.3-53.1L160.6,485.3z"/>
		<path class="st0" d="M58.2,687.4c0,0-11.8-30.6,5.8-47.3c9.5-9,22.7-11.7,36-8.1c0,0-10-18-28.8-18.1
			C45.6,613.8,38,639.4,38,639.4L58.2,687.4z"/>
		<path class="st0" d="M227.8,553.2c0.9-12.4-2.9-29.7-7.5-42.4c0,0,33.5,10.2,31.9,58.2L227.8,553.2z"/>
		<path class="st0" d="M82.8,557.5c0,0,8.7,20.7,22,23.9c0,0-40.1,9.9-48.1-24.7L82.8,557.5z"/>
	</g>
	<g>
		<path class="st0" d="M1018.7,492.4c26.1,107.3,0.8,206.4-146.8,253.2c-150,47.5-225-16.7-266.4-118c-2.1-5.1-0.7-17.1,3.8-18.6
			c111.6-36,292.4-94.3,394.6-127.3C1008.3,480.3,1017.5,487.7,1018.7,492.4z"/>
		<g>
			<path class="st0" d="M779.7,782.3c-47.6,0-88.8-14.3-122.5-42.6c-29-24.4-52.2-58.5-70.9-104.2c-3.7-9.1-3.2-22.5,1.2-32
				c3.3-7,8.7-12,15.4-14.2L997.6,462c2.4-0.8,5-1.2,7.6-1.2c14,0,30.4,13,33.7,26.7c15.4,63.4,12.1,118.4-9.8,163.3
				c-25.6,52.4-76.4,91-150.9,114.6C842.7,776.6,809.5,782.3,779.7,782.3z"/>
			<path class="st0" d="M1005.1,481.5c4.6,0,12.5,6.5,13.5,10.9c26.1,107.3,0.8,206.4-146.8,253.2c-34.6,10.9-65.1,16-92.2,16
				c-90.6,0-142.3-56-174.1-133.9c-2.1-5.1-0.7-17.1,3.8-18.6c111.6-36,292.4-94.3,394.6-127.3
				C1004.3,481.6,1004.7,481.5,1005.1,481.5 M1005.1,440c-4.8,0-9.5,0.7-13.9,2.2L737.7,524l-141.2,45.5
				c-12.2,4-22.1,12.9-27.9,25.2c-6.8,14.7-7.5,34.2-1.6,48.6c20,48.9,45.1,85.6,76.8,112.3C681.3,787,727,803,779.7,803
				c32,0,67.3-6,104.8-17.9c80.1-25.4,135.1-67.5,163.3-125.2c24.1-49.4,27.9-109,11.3-177.3c-3.4-13.9-12.5-23.7-19.6-29.4
				C1032.1,447.2,1020.2,440,1005.1,440L1005.1,440z"/>
		</g>
		<path class="st0" d="M962.6,526.2c20.6,72.9-4.6,145.3-104.4,176.9c-101.9,32.3-162.2-11.3-188-82.5L962.6,526.2z"/>
		<path class="st0" d="M836.1,602.9c10.8,18.1,27.7,46.2,28.5,65.6c0.8,19.4-20.5,21.6-26.6,8.8c-8.8-18.5-13-56.8-14.1-70.1
			C822.9,593.9,826.8,587.3,836.1,602.9z"/>
		<path class="st0" d="M798.5,617.9c2.6,19,6.9,48.5-0.2,64.8c-7,16.2-27.4,9.9-27.9-2.9c-0.7-18.5,10.8-51.6,15.2-62.9
			C790,605.4,796.2,601.5,798.5,617.9z"/>
		<path class="st0" d="M765.6,624.7c-8.5,12.8-21.6,32.7-34.8,38c-13.2,5.3-22.7-10.7-16.1-18.5c9.5-11.3,34.5-23.9,43.3-27.9
			C766.9,612.3,772.9,613.6,765.6,624.7z"/>
		<path class="st0" d="M856.7,599.1c8.9,16.9,22.8,43.4,38,52.5c15.2,9.1,28.1-8,20.9-18.7c-10.3-15.4-38.9-35.6-49.1-42.2
			C856.3,584,849,584.4,856.7,599.1z"/>
		<path class="st0" d="M887.4,585.4c14.3,5.4,36.6,13.9,50.4,10.5c13.8-3.4,12.2-21.9,2.3-24.4c-14.3-3.6-41.9,0.8-51.5,2.7
			C879.1,576.1,875,580.7,887.4,585.4z"/>
		<path class="st0" d="M909.2,679.5c-26.2,0.7-51.7-4-74.7-16.7c-68.9-38.1-66.8-91.7-72.3-103.1C706.6,577.6,652.7,595,609.3,609
			c-4.5,1.5-5.8,13.5-3.8,18.6c41.3,101.3,116.4,165.5,266.4,118c92-29.1,136.4-78.6,150.6-137.8
			C1001.3,644.5,962.5,678.1,909.2,679.5z"/>
	</g>
	<g>
		<g>
			<g>
				<path class="st0" d="M435.1,266.3c1.9,13.8-32.2,22.7-46.1,21.7c-11.6-1-6.3-19.7-6.9-31.6c-0.8-16-15.8-52.9-23.3-74.6
					c-6-17.4,14.9-18.4,19.9-14.8c0.1,0,0.1,0,0.1,0c8.2,6.1,16.6,37.1,24,58.9C410.2,247.6,433.2,252.6,435.1,266.3z"/>
			</g>
		</g>
		<g>
			<path class="st0" d="M514.9,860c-42.7,0-83.4-10.2-120.9-30.4c-51.7-27.8-84.2-77.8-96.8-148.7c-10.9-61.9-4.7-129.1,0.9-174.3
				l1.1-8.6c1-7.7,1.8-14.9,2.7-21.6c8.2-66.7,10.5-90.9,13.3-129.6c0.9-12.2,5.5-32,15.9-50.8c14.4-26,36.4-44.7,63.7-53.9
				c13.7-4.6,27.4-7,40.7-7c26.3,0,51.6,9.3,73.1,26.8c5.2,4.2,10.1,8.8,15,14.1c4.9,5.4,9.2,10.1,13.3,14.7
				c20.1,22.3,35.9,40,100.8,100.4c33.5,31.2,79.5,80.5,108.3,137.6c32.4,64.2,36.4,124.1,12,178c-39.6,87.2-116,127.2-156.3,137.5
				C590.8,848.8,559.5,860,514.9,860z"/>
			<path class="st0" d="M435.5,255.9c24.5,0,44.6,9.6,60,22.2c4.7,3.8,8.9,7.9,12.7,12c29.4,32.2,36.8,43.2,115.2,116.2
				C698,475.8,787.6,591,739,698.1C700.6,782.7,625.9,817,595,824.5c-15.2,6.7-44.2,14.7-80.1,14.7c-33,0-71.9-6.8-111.1-27.9
				c-103.7-55.7-97.7-200.9-85.1-302.1c1.4-11,2.6-21,3.7-30.3c8.3-67.9,10.6-92.4,13.4-130.7c1.1-15.2,12.8-68.7,65.6-86.6
				C413.6,257.7,424.9,255.9,435.5,255.9 M435.5,214.4v41.5V214.4C435.5,214.4,435.5,214.4,435.5,214.4c-15.6,0-31.5,2.7-47.4,8.1
				c-32.3,10.9-58.3,32.9-75.2,63.5c-15.1,27.4-18,52.4-18.5,59.3c-2.7,38.4-5,62.3-13.2,128.6c-0.8,6.6-1.7,13.6-2.6,21.1l-1.1,9.1
				h0c-5.8,46.5-12.2,115.8-0.8,180.5c6.2,35.1,17.2,65.9,32.6,91.6c18.5,30.9,43.7,55,74.8,71.7c40.6,21.8,84.6,32.9,130.7,32.9
				c46.4,0,80.2-11.5,93.4-16.8c14.5-3.9,45.5-14.5,80.5-40.3c17.6-12.9,33.6-27.9,47.6-44.4c16.3-19.3,29.9-40.8,40.5-64
				c14.6-32.1,20.1-66.5,16.4-102.4c-3.1-30.3-12.7-61.7-28.8-93.5c-30.2-59.8-77.9-111-112.7-143.4c-64.2-59.8-79.8-77.1-99.5-99.1
				c-4.1-4.6-8.4-9.4-13.4-14.8c-5.6-6.1-11.3-11.5-17.3-16.3C496.4,225.2,466.6,214.4,435.5,214.4L435.5,214.4z"/>
		</g>
		<path class="st0" d="M739,698.1C700.6,782.7,625.9,817,595,824.5c-29.1,12.8-109.4,30.8-191.2-13.2
			c-103.7-55.7-97.7-200.9-85.1-302.1c1.4-11,2.6-21,3.7-30.3c8.3-67.9,10.6-92.4,13.4-130.7c1.1-15.2,12.8-68.7,65.6-86.6
			c40.3-13.6,72-1.7,94.1,16.3c4.7,3.8,8.9,7.9,12.7,12c29.4,32.2,36.8,43.2,115.2,116.2C698,475.8,787.6,591,739,698.1z"/>
		<path class="st0" d="M696.3,690.8C667.6,761.7,609,789.3,584.6,795c-22.9,10.3-86.2,23.9-152-15.1
			c-83.4-49.3-81.7-172.2-73.7-257.7c0.9-9.3,1.6-17.8,2.3-25.6c5.2-57.3,6.5-78,7.9-110.5c0.6-12.9,8.7-58,50.3-72
			c31.7-10.7,57.1,0,75,15.7c3.8,3.3,7.2,6.8,10.4,10.5c24,27.9,30.1,37.4,93.8,100.9C659.2,501.6,732.7,601,696.3,690.8z"/>
		<g>
			<path class="st0" d="M619.5,574.6c22,58-1.3,120.6-51.8,139.7c-50.6,19.1-109.3-12.4-131.3-70.4
				c-26.2-69.2-14.3-161.6,36.3-180.7c18.1-6.8,38.7-3.4,58.9,7.1C567.7,488.9,602.7,530.1,619.5,574.6z"/>
			<path class="st0" d="M455.4,491.1c-14.9,24-19.8,84.3-3.3,131.4c16.5,47.1,53.5,52.7,84.2,44.9c30.7-7.7,49.1-68,30.6-110.5
				C537.7,490,485.9,441.9,455.4,491.1z"/>
		</g>
		<path class="st1" d="M471.9,516.1c-18.8,18.6-18.3,70.7-1.5,90.5c16.5,19.4,20.6-7.3,23.4-23.4c2-11.6,8.3-94-21-67.9
			C472.5,515.6,472.2,515.9,471.9,516.1z"/>
		<path class="st0" d="M576.5,744.9c-144.2,25.9-252.3-95.3-264.5-129.6c1.4,78.7,21.2,158.1,91.8,196.1c81.8,44,162,26,191.2,13.2
			c30.9-7.5,105.6-41.8,144-126.4c17.2-37.9,17-76.8,6.4-114.3C711.6,699.9,690.6,724.4,576.5,744.9z"/>
	</g>
	<g>
		<g>
			<path class="st0" d="M451.5,952.9h38.8c8.4,11.5,16.8,27.2,26.8,27.2c10,0,16.4-7.9,28.6-19.5c0,0,36.5,12.3,50.5,5.3l-5.6-59.5
				l-139.1-12.9V952.9z"/>
		</g>
		<g>
			<g>
				<path class="st0" d="M652,971.7c-49.2,0-86.8-8.9-88.4-9.3c-6.7-1.6-12.2-6.5-14.6-13c-1.9-5-1.7-10.5,0.4-15.3
					c-10,11-15.5,18.2-15.7,18.4c-4,5.3-10.2,8.2-16.5,8.2c-2.2,0-4.4-0.3-6.5-1c-8.2-2.7-13.8-10.1-14.2-18.7
					c-0.7-1.4-1.6-3.1-2.7-5.1c-0.3,1-0.7,2-1.2,3c-2.7,5.5-7.7,9.6-13.7,11c-1.7,0.4-17.4,4.1-39.5,4.1c-28.4,0-69.2-6.2-102.2-36
					c-50.8-45.8-116.4-132-119.2-135.7c-5.9-7.7-5.6-18.4,0.6-25.9c3.3-3.9,34.7-38.5,127.7-44.1c3.4-0.2,6.9-0.3,10.3-0.3
					c44,0,88.7,16.6,122.7,45.6c17.9,15.3,32.1,33.4,42.3,53.4c16.6-29,41.3-53.5,73.3-72.5c46-27.3,106.7-42.3,170.9-42.3
					c24.3,0,48.4,2.1,71.6,6.3c136.5,24.7,169.3,49.9,174.5,54.6c4.5,4.2,7,10.1,6.6,16.3c-0.3,6.1-3.3,11.8-8.2,15.5
					c-5.1,3.9-126.2,95.1-215.1,148.3C757,960.1,708.8,971.7,652,971.7z"/>
				<path class="st0" d="M765.7,716.9c23.1,0,46.1,2.1,67.9,6c137.5,24.9,164.1,49.5,164.1,49.5s-124.3,93.8-213.2,147.1
					C743,944.3,693.3,951,652,951c-47.3,0-83.6-8.7-83.6-8.7C652.2,827,786.9,796,786.9,796c-5.4-0.4-10.7-0.6-15.9-0.6
					c-144.2,0-253.8,144.6-253.8,144.6c0-1.2,0.1-2.3,0.1-3.4c-2.3-6.3-62.3-128.2-160.3-135.9c0,0,75.4,36,117,129.1
					c0,0-14.3,3.5-34.6,3.5c-25.5,0-60.5-5.6-88.3-30.7c-49.9-45.1-116.6-132.8-116.6-132.8s26.3-31.5,113-36.7c3-0.2,6-0.3,9.1-0.3
					c77.1,0,160,58,162.2,151.2C533.9,766.3,652.3,716.9,765.7,716.9 M765.7,675.4c-32.4,0-64,3.6-93.8,10.7
					c-32.4,7.7-61.9,19.3-87.6,34.5c-24.5,14.5-45.3,32.2-61.9,52.6c-8.5-11.3-18.4-21.9-29.6-31.4c-37.7-32.1-87.3-50.6-136.1-50.6
					c-3.9,0-7.8,0.1-11.6,0.3c-99.5,6-136,44-142.4,51.5c-12.4,14.9-12.9,36.3-1.2,51.7c2.8,3.7,69.6,91.4,121.8,138.5
					c30,27.1,70.1,41.4,116.1,41.4c24.6,0,42.5-4.2,44.5-4.7c1.2-0.3,2.4-0.6,3.6-1c4.6,4.7,10.3,8.4,16.8,10.5
					c4.3,1.4,8.6,2.1,12.9,2.1c8.7,0,17.2-2.7,24.2-7.8c4.9,4.2,10.9,7.3,17.4,8.9c1.7,0.4,41.6,9.9,93.3,9.9
					c60.6,0,112.3-12.6,153.7-37.4c89.8-53.8,211.7-145.7,216.9-149.6c9.8-7.4,15.8-18.8,16.5-31.1c0.6-12.3-4.3-24.2-13.3-32.5
					c-10.7-9.8-50-35.4-184.8-59.8C816.5,677.7,791.2,675.4,765.7,675.4L765.7,675.4z"/>
			</g>
		</g>
		<g>
			<path class="st0" d="M347.5,733c79.5-4.8,169,54,171.3,150.9c18.2-141.6,186.1-184.3,314.7-161c137.5,24.9,164.1,49.5,164.1,49.5
				s-124.3,93.8-213.2,147.1c-88.9,53.3-224,22.7-224,22.7C644.1,827,786.9,796,786.9,796c-152-11.3-269.7,148-269.7,148
				c0-1.2,0.1,1.8,0.1,0.6c-2.3-6.3-54.5-125-160.3-144c0,0,79.5,36,121,129.1c0,0-77,17.9-127-27.2
				c-49.9-45.1-116.6-132.8-116.6-132.8S260.8,738.2,347.5,733z"/>
		</g>
		<g>
			<path class="st0" d="M858.5,850.7c-62.4,42.1-130.6,77-208.3,71.9c-3.7-0.2-6.4-3.4-5.4-7.1c15.1-57.9,62.9-84.9,111.5-110.5
				c-46.6,15.8-136.2,55.2-195.8,137.3c0,0,135.1,30.6,224-22.7c88.9-53.3,213.2-147.1,213.2-147.1s-0.9-0.8-3.1-2.2
				C945,786.6,899,823.3,858.5,850.7z"/>
			<path class="st0" d="M360.1,802.1c-1.3-0.6-2.5-1.2-3.8-1.7c25,22.4,47.4,49.5,72.2,93.1c0,0-21,6.4-55.2-8.5
				c-38.5-16.7-44.6-23.8-81.4-44.8c19.1,22.2,40.4,45.3,59.2,62.3c49.9,45.1,127,27.2,127,27.2C441.3,847.4,375,809.8,360.1,802.1z
				"/>
		</g>
	</g>
	<g>
		<path class="st0" d="M648.4,307.2c-3.8,0-7.6-1-10.9-3.1c-62.9-39-100.4-108.1-93.3-171.9c7.3-65.8,48.5-92.3,50.3-93.4
			c3.4-2.1,7.2-3.1,11-3.1c3.5,0,7,0.9,10.2,2.7c2.9,1.6,70.9,41,84.5,132.5c13.5,91.1-37,130.5-39.1,132.2
			C657.3,305.8,652.8,307.2,648.4,307.2z"/>
		<path class="st0" d="M605.4,56.4c0,0,61.9,34.9,74.1,117.4c11.9,80-31.1,112.6-31.1,112.6c-57.8-35.9-89.6-97.7-83.7-152
			C571,77.9,605.4,56.4,605.4,56.4 M605.4,14.9c-7.6,0-15.3,2.1-22,6.3c-5.3,3.3-51.7,34.3-59.9,108.7
			c-3.9,35.5,3.9,72.5,22.6,107.2c18.5,34.2,46.3,63.5,80.4,84.6c6.7,4.2,14.3,6.2,21.9,6.2c8.9,0,17.7-2.8,25.1-8.4
			c3.1-2.3,19-15.2,31.9-40.5c7.3-14.4,12.5-30.2,15.2-47.1c3.3-20.1,3.3-41.7,0-64.2c-6.2-41.8-24.1-80.2-51.8-111.2
			c-20.5-23-39.5-34.3-43-36.3C619.5,16.7,612.4,14.9,605.4,14.9L605.4,14.9z"/>
	</g>
	<path class="st2" d="M648.4,286.5c-57.8-35.9-89.6-97.7-83.7-152c6.2-56.6,40.6-78,40.6-78s61.9,34.9,74.1,117.4
		C691.4,253.8,648.4,286.5,648.4,286.5z"/>
	<path class="st0" d="M679.6,173.9c-6.1-41.1-24.5-70.4-41.5-89.5c0.5,1.3,0.7,2.8,1.4,4c13.4,22.6,34,92.8,9.2,147.5
		c-3.2,7.2-14.4-33.5-16.6-28c-3.7,9.3-0.9,34.3-3.3,34.2c-18.4-1-41.9-23.1-52.9-39.2c13.6,32.3,38.5,62.4,72.6,83.5
		C648.4,286.5,691.4,253.8,679.6,173.9z"/>
	<path class="st0" d="M650.5,295.7c-9.1-11-20-37.6-27.6-82.1c-3.1-18.2-7-44.6-8.7-61.5c-1-10.2,1.3-13.6,5.4-3.8
		c6.4,15,13.2,42.7,22.9,68.2c13.8,36.4,14.3,77.2,14.3,77.2L650.5,295.7z"/>
</g>
<g>
	<g>
		<g>
			<g>
				<g>
					<g>
						<g>
							<g>
								<path class="st3" d="M857,121.9c13.7,4.4,68.3,35.7,80.7,39.8c-12.5,28-17.8,50.1-42.8,83.9c33.8-31.8,43.3-49,60.4-77.9
									c7.9,2.7,21.9,7.3,29.9,10C946,233.1,881.3,306.6,870.9,306.6c-0.2,0-0.4,0-0.6-0.1c-5.3-2.2-9.3-8.3-11.1-15.7
									c-2.5,1.3-5.4,1.9-8.5,1.9c-9.9,0-21.1-5.9-23.8-11.9C825.3,277.5,861.6,175.5,857,121.9 M857,100.2
									c-4.9,0-9.7,1.6-13.6,4.7c-5.7,4.5-8.7,11.6-8.1,18.9c3,35.6-15.4,99.9-24.2,130.9c-1.8,6.1-3.1,11-4.1,14.7
									c-1.6,6.1-3.4,13,0.1,20.6c6.7,14.6,24.4,23,39.4,24.4c4.1,5.5,9.4,9.7,15.4,12.3c2.9,1.2,5.9,1.8,9.1,1.8
									c10.5,0,19.2-6.5,31.7-18.4c8.4-8,19.1-19.3,30.9-32.7c24.4-27.6,50.3-60.1,69.4-87c4-5.6,5.1-12.8,2.9-19.3
									c-2.1-6.5-7.2-11.7-13.8-13.9c-2.7-0.9-6.2-2.1-9.9-3.3c-6.9-2.3-14.8-4.9-20-6.7c-2.3-0.8-4.6-1.1-7-1.1
									c-0.8,0-1.6,0-2.4,0.1c-2.3-2.2-5.1-3.9-8.2-5c-4.3-1.5-22.3-10.9-34.2-17.2c-23.5-12.4-38.4-20.1-46.8-22.7
									C861.5,100.5,859.2,100.2,857,100.2L857,100.2z"/>
							</g>
							<path class="st4" d="M955.3,167.8c-17.1,29-26.7,46.1-60.4,77.9c25-33.8,30.3-55.9,42.8-83.9c-12.4-4.2-67-35.4-80.7-39.8
								c4.6,53.6-31.7,155.6-30.2,159c3.6,7.8,21.8,15.5,32.3,10c1.8,7.3,5.8,13.4,11.1,15.7c8.1,3.4,74.8-72.2,114.9-128.8
								C977.2,175.1,963.3,170.4,955.3,167.8z"/>
							<path class="st5" d="M955.3,167.8c-17.1,29-26.7,46.1-60.4,77.9c25-33.8,30.3-55.9,42.8-83.9c-2.3-0.8-6.2-2.6-11-4.9
								c-0.9,1.2-1.8,2.4-2.7,3.6c-6,25.7-11,50-41.4,63c-13.4,5.7-27.8,7.4-42,6.1c-7.5,28.2-14.5,49.9-13.8,51.4
								c3.6,7.8,21.8,15.5,32.3,10c1.8,7.3,5.8,13.4,11.1,15.7c8.1,3.4,74.8-72.2,114.9-128.8C977.2,175.1,963.3,170.4,955.3,167.8z
								"/>
							<g>
								<path class="st6" d="M807.5,504.4c-10.4,20.7-25.3,38.4-40.6,60.1c-14,19.9-28.3,44.8-45.2,64.9
									c-30.7,36.4-60.2,68.5-89.3,95c-9.2,8.3-53.6,40.4-55.7,2.3c-0.8-14.1,7.3-27.7,12.4-38.9c8.6-18.8,18.6-37.3,27-57.4
									c8.3-19.8,14.7-41,22.5-61.3c8.3-21.8,20.3-41.6,29.3-62.1c16.7-37.9,32.9-72.9,47.3-112.5c7.2-19.7,20.4-35.3,29.2-55.1
									c7.8-17.5,9.6-38.3,22.1-53.4c22.4-27.2,72.5-32.4,103.2-15.9c21.6,11.6,31.5,33.8,34.3,57.4c2.7,22.8-8.5,37.4-21.4,54.9
									c-15.7,21.3-24.7,48.9-38.7,71.2C831.7,473.2,816.3,486.9,807.5,504.4z"/>
								<g>
									<path class="st3" d="M828.9,260.7c14.6,0,29.1,3.1,40.7,9.4c21.7,11.6,31.5,33.8,34.3,57.4c2.7,22.9-8.5,37.4-21.3,54.9
										c-15.7,21.4-24.8,48.9-38.7,71.2c-12.2,19.5-27.6,33.3-36.4,50.8c-10.4,20.7-25.3,38.4-40.6,60.1c-2.1,3-4.2,6-6.3,9.2
										c-2.7,4-5.5,8.2-8.3,12.5c-9.5,14.6-19.5,29.9-30.7,43.2c-16.2,19.3-32,37.3-47.7,53.9c-1.9,2-3.7,3.9-5.5,5.8
										c-12.1,12.7-24.1,24.6-36.1,35.4c-5.9,5.4-26.4,20.5-40.9,20.5c-8,0-14.2-4.7-14.9-18.3c-0.8-14.1,7.3-27.7,12.4-38.9
										c8.6-18.7,18.6-37.3,27-57.4c2.1-5.1,4.2-10.3,6.1-15.6c0.4-1.3,0.9-2.5,1.4-3.8c5-13.9,9.7-28.1,15-41.9
										c8.4-21.8,20.4-41.6,29.4-62c7.8-17.7,15.5-34.8,22.8-51.9c1.7-3.7,3.3-7.5,4.9-11.3c6.8-16,13.3-32.2,19.5-49.3
										c7.2-19.7,20.4-35.4,29.2-55.2c7.8-17.5,9.7-38.3,22.1-53.4C780.3,269.1,804.9,260.7,828.9,260.7 M828.9,239v21.8V239
										c-32.5,0-62.2,12.4-79.3,33.2c-10.7,13-15.2,27.9-19.2,41.1c-1.9,6.3-3.7,12.2-6,17.3c-3.4,7.6-7.7,14.8-12.3,22.4
										c-6.3,10.5-12.8,21.3-17.5,34.2c-5.5,15.1-11.6,30.4-19.1,48.2c-0.4,1-0.9,2-1.3,3c-1.2,2.7-2.3,5.3-3.4,7.8
										c-0.1,0.2-0.1,0.3-0.2,0.5c-4.7,10.9-9.5,21.7-14.5,33c-2.7,6.1-5.5,12.4-8.3,18.7c-3.5,7.9-7.5,15.7-11.7,24.1
										c-6.3,12.3-12.7,25-18,38.9c-3.4,8.8-6.5,17.7-9.5,26.4c-1.8,5.2-3.7,10.5-5.5,15.7c-0.5,1.2-1,2.6-1.5,4.1
										c-1.7,4.7-3.6,9.5-5.7,14.6c-4.9,11.8-10.6,23.4-16.1,34.7c-3.5,7.1-7.1,14.5-10.5,21.9c-0.7,1.5-1.5,3.2-2.4,5.1
										c-5.5,11.2-12.9,26.6-11.9,44.2c0.7,11.6,4.2,20.9,10.5,27.8c6.6,7.1,15.9,11.1,26.2,11.1c26.2,0,54.3-25.1,55.4-26.1
										c0,0,0,0,0.1,0c11.9-10.8,24.4-23.1,37.1-36.4c1.2-1.3,2.4-2.5,3.6-3.7c0.7-0.7,1.3-1.4,2-2.1c0,0,0.1-0.1,0.1-0.1
										c15.3-16.2,31.1-34.1,48.5-54.8c12.2-14.5,22.9-30.9,32.2-45.4c3-4.5,5.9-8.9,8.1-12.2c0.1-0.1,0.1-0.2,0.2-0.2
										c1.9-2.9,3.9-5.8,5.9-8.6c4.1-5.7,8.1-11.3,12.1-16.7c11.2-15.2,21.8-29.5,30.2-46.2c3.8-7.5,9.6-14.8,16.4-23.2
										c6-7.5,12.8-15.9,19-25.8c6.7-10.7,12.2-22.2,17.6-33.3c6.5-13.4,12.6-26.1,20.2-36.6l1-1.3c13.2-17.9,28.1-38.3,24.4-69.1
										c-1.8-15.5-6.1-29.3-12.7-41.2c-7.9-14.3-19-25.3-33-32.8C865.3,243.1,847.7,239,828.9,239L828.9,239z"/>
								</g>
								<path class="st6" d="M888,375c-1.7,2.4-3.5,4.9-5.4,7.4c-2.9,4-5.6,8.1-8.1,12.5c-11.1,18.9-19.3,40.6-30.6,58.8
									c-12.2,19.5-27.6,33.2-36.4,50.7c-1.5,3.1-3.2,6.1-4.9,9c-3.9,6.8-8.3,13.3-13,19.8c-7.1,10-14.8,20-22.7,31.2
									c-2,3-4.2,6-6.2,9.2c-2.7,4-5.5,8.2-8.3,12.5c-9.5,14.6-19.5,29.9-30.7,43.2c-16.2,19.3-32.1,37.2-47.7,53.9
									c-1.9,1.9-3.7,3.9-5.5,5.8c-12.1,12.7-24.1,24.5-36.1,35.4c-9.2,8.3-53.6,40.4-55.8,2.3c-0.8-14.2,7.2-27.8,12.4-38.9
									c8.7-18.7,18.6-37.3,27-57.3c2.1-5.2,4.2-10.3,6.2-15.6c0.4-1.3,0.9-2.5,1.4-3.8c5-13.9,9.6-28.1,15-41.9
									c8.4-21.8,20.4-41.6,29.4-62c7.8-17.7,15.5-34.8,22.8-51.9c1.7-3.7,3.3-7.5,4.9-11.3c5.5-13,10.9-26.1,16-39.8
									c1.2-3.1,2.4-6.3,3.5-9.4c1.8-5.1,4.1-9.9,6.5-14.5c7.2-13.5,16.1-25.9,22.7-40.6c7.8-17.5,9.7-38.3,22.1-53.4
									c22.4-27.2,72.5-32.4,103.1-15.9c21.7,11.6,31.5,33.8,34.4,57.4C906.3,347,898.4,360.5,888,375z"/>
								<path class="st7" d="M900.4,310.3c-0.9,2.2-1.7,4.2-2.4,5.8c-7.2,16-13.6,32.3-20.8,48.2c-13.6,30.1-34.7,61-60.7,81.7
									c-26.6,21.1-66.2,33.1-98.7,19.1c-9.5-4.1-17.4-10-24.1-17.1c-1,2.4-2,4.8-3.1,7.1c-7.3,17.1-15.1,34.2-22.8,51.9
									c-9,20.4-21,40.2-29.4,62c-5.3,13.9-9.9,28.1-15,41.9c-0.5,1.3-1,2.5-1.4,3.8c-1.9,5.3-4,10.5-6.2,15.6
									c-8.3,20.1-18.3,38.6-27,57.3c-5.1,11.2-13.2,24.8-12.4,38.9c2.2,38.1,46.6,6,55.8-2.3c11.9-10.9,24-22.7,36.1-35.4
									c1.8-1.9,3.6-3.9,5.5-5.8c15.7-16.6,31.5-34.6,47.7-53.9c11.2-13.3,21.2-28.6,30.7-43.2c2.8-4.3,5.6-8.5,8.3-12.5
									c2.1-3.2,4.2-6.2,6.2-9.2c7.9-11.2,15.7-21.2,22.7-31.2c4.7-6.6,9.1-13.1,13-19.8c1.7-3,3.4-6,4.9-9
									c8.8-17.5,24.2-31.2,36.4-50.7c11.3-18.1,19.5-39.8,30.6-58.8c2.5-4.3,5.2-8.5,8.1-12.5c1.8-2.5,3.7-5,5.4-7.4
									c10.4-14.4,18.3-27.9,15.9-47.4C903.2,321.6,902.1,315.8,900.4,310.3z"/>
								<path class="st8" d="M874.5,394.9c-2.8-1.3-5.6-2.8-8.3-4.5c-26-16.5-35.8-37.5-35.8-37.5c18.9,5,29.4,6.7,49.2,17.3
									c3.1,1.6,5.8,3.2,8.5,4.8L874.5,394.9z"/>
								<path class="st8" d="M781.1,422.7c-2.3-0.1-34.6-2.3-69.5-18.8c1.2-3.1,2.4-6.3,3.5-9.4c1.8-5.1,4.1-9.9,6.5-14.5
									c0.8,0.3,1.6,0.6,2.5,1C744.3,388.8,759.6,404.1,781.1,422.7z"/>
								<path class="st8" d="M802.6,513.4c-3.9,6.8-8.3,13.3-13,19.8c-18.7-11.8-32.7-26-48-41.9
									C741.6,491.4,764.8,491.4,802.6,513.4z"/>
								<g>
									<path class="st3" d="M633.8,571.1c-2.7,7.5-5.7,14.9-8.9,22.3c28.5,15.2,65.7,34.4,65.7,34.4S666.1,595.3,633.8,571.1z"/>
								</g>
							</g>
						</g>
					</g>
				</g>
			</g>
		</g>
		<g>
			<path class="st3" d="M930.9,141.4c0,0-8.4,56.6-36,104.3c0,0,42.7-25.9,73.4-87.4L930.9,141.4z"/>
		</g>
	</g>
	<g>
		<g>
			<path class="st3" d="M294.6,548.9c0,0-0.2,7.8,2.8,25.8c2.1,12.3,2.4,39.6,21.1,55.8c11.4,9.9,37.4,28.5,56.2,41.6
				c-12,22.4-26.8,43.1-45.1,61.8c-15.8-13.6-36-30.1-48.9-37.3c-20.4-11.3-37.5-14.7-52.2-14.7c-2.3,0-4.6,0.1-6.8,0.2
				c-16.2,1.1-54.7,10.2-54.7,10.2l6.4-22.9c0,0,39.5-7,57.9-7c0.9,0,1.8,0,2.6,0.1c0.2,0,0.3,0,0.4,0c15.5,0-46.7-40.4-46.7-40.4
				l9.2-24.4c0,0,35.5,31.3,45,31.3c0.7,0,1.3-0.2,1.7-0.6c5.6-5.5-21.3-33-21.3-33l17.8-22.2c0,0,17.2,33.8,33.2,37.3
				c1.2,0.3,2.3,0.4,3.3,0.4c11.6,0,5-18.3,0.9-33.5c-4.4-16.5-9.4-26.4-9.4-26.4L294.6,548.9 M294.8,527.2c-0.7,0-1.3,0-2,0.1
				l-26.5,2.2c-7.2,0.6-13.7,4.7-17.3,11.1c-2.1,3.7-3,7.9-2.7,12c-1.3-0.4-2.6-0.7-4-0.8c-0.8-0.1-1.5-0.1-2.3-0.1
				c-6.6,0-12.8,3-17,8.1L207.6,579c-3.3-1.9-7-2.9-10.8-2.9c-1.7,0-3.5,0.2-5.2,0.6c-6.9,1.7-12.6,6.7-15.1,13.4l-9.2,24.4
				c-3.6,9.6-0.1,20.4,8.5,26c2.6,1.7,5.3,3.5,8,5.3c-7.3,1.1-12.7,2.1-14.1,2.3c-8.2,1.5-14.9,7.5-17.2,15.5l-6.4,22.9
				c-2.1,7.4-0.1,15.4,5.2,21c4.2,4.3,9.9,6.7,15.7,6.7c1.7,0,3.3-0.2,5-0.6c10.2-2.4,39.4-8.8,51.2-9.7c1.8-0.1,3.6-0.2,5.3-0.2
				c13.7,0,26.9,3.8,41.6,12c5.2,2.9,17.9,11.2,45.2,34.7c4.1,3.5,9.2,5.3,14.2,5.3c5.7,0,11.3-2.2,15.6-6.6
				c19.2-19.6,35.6-42.1,48.7-66.8c5.2-9.7,2.3-21.8-6.7-28.1c-26.8-18.8-46.1-33.1-54.4-40.2c-9.5-8.2-11.4-23.8-12.8-35.2
				c-0.3-2.7-0.7-5.3-1.1-7.7c-2.3-13.8-2.5-20.6-2.5-21.6c0.3-6.2-2.1-12.1-6.6-16.4C305.7,529.2,300.3,527.2,294.8,527.2
				L294.8,527.2z M294.6,570.7L294.6,570.7L294.6,570.7L294.6,570.7z"/>
		</g>
		<path class="st9" d="M280.7,696.7c12.8,7.1,33.1,23.7,48.9,37.3c18.3-18.7,33.2-39.4,45.1-61.8c-18.7-13.1-44.8-31.7-56.2-41.6
			c-18.7-16.2-19-43.5-21.1-55.8c-3-18-2.8-25.8-2.8-25.8l-26.5,2.2c0,0,5,9.9,9.4,26.4c4.4,16.5,11.8,36.6-4.2,33.1
			c-16-3.5-33.2-37.3-33.2-37.3l-17.8,22.2c0,0,26.9,27.5,21.3,33c-5.6,5.5-46.7-30.7-46.7-30.7l-9.2,24.4c0,0,63.3,41.1,46.3,40.4
			s-60.5,6.9-60.5,6.9l-6.4,22.9c0,0,38.5-9.1,54.7-10.2C237.8,681.1,257,683.6,280.7,696.7z"/>
		<g>
			<path class="st3" d="M199.5,454.9c22.4,0,40,19.4,40,19.4c5.9-11.3,15.2-16,24.9-16c9.2,0,18.8,4.2,26.1,11
				c19,17.5,22,49.6,6.5,70.3c-9.9,13.3-26.6,20.7-43.2,20.7c-9.1,0-18.2-2.2-26.1-6.9c-2.7,19.7-14.3,38.3-31.7,47.9
				c-4.6,2.5-9.6,4.4-14.8,5.5c0.2,0.2,0.3,0.4,0.5,0.6c8.7,12,8.4,29.4,1.4,42.5c-7.4,14-18.8,24.8-33.9,24.8
				c-1.1,0-2.3-0.1-3.5-0.2c4.1,8.6-0.7,26-6.3,32.4c-6.5,7.3-20.9,11.2-32.8,11.2c-3.5,0-6.9-0.4-9.7-1.1
				c-12.2-3.1-22.5-10.1-30.4-19.9c-9.6-11.9-17-26-15.3-41.3c1.7-15.2,10.7-33.5,25.8-35.5c-18.3-13.1-16.9-35.8-9.3-49.9
				c3.4-6.4,8.8-10.6,15-12.9c-4.9-14.1-4.6-30.2,0.7-42.6c8.9-20.7,28.5-37.9,50.8-37.9c8.5,0,17.4,2.5,26.2,8.3
				c3.3-10.1,10.1-20.3,20.9-25.9C187.7,456.2,193.7,454.9,199.5,454.9 M199.5,433.1C199.5,433.1,199.5,433.1,199.5,433.1
				c-9.8,0-19.2,2.3-28.1,7c-8,4.2-14.9,10.1-20.5,17.3c-5.4-1.4-11-2.1-16.6-2.1c-15.5,0-30.6,5.5-43.8,15.8
				c-11.6,9.1-20.9,21.3-26.9,35.2c-5.3,12.4-7.1,27-5.3,41.3c-3.8,3.6-7,7.8-9.6,12.5c-8.7,16.1-11,37-3.1,54.9
				c-9.1,10.7-14.5,25.1-15.9,38.4c-2.1,19,4.6,38.3,20,57.3c11.1,13.7,25.5,23.1,41.9,27.3c4.5,1.2,9.6,1.8,15.1,1.8
				c15.1,0,37-4.9,49.1-18.6c7.5-8.4,10.7-20.4,11.8-25.1c0.2-1.1,0.5-2.2,0.7-3.4c5.1-2,9.9-4.7,14.4-8.3
				c7.8-6.1,14.5-14.4,19.9-24.6c6.8-12.9,9-27.7,6.8-41.3c10.4-6.3,19.5-15.2,26.4-25.8c2.4-3.8,4.6-7.7,6.5-11.8
				c3.8,0.6,7.8,0.9,11.7,0.9c24.2,0,46.9-11,60.6-29.4c10.7-14.3,15.6-32.6,13.9-51.4c-1.8-18.8-10-35.9-23.1-48
				c-11.5-10.6-26.4-16.7-40.8-16.7c-10.1,0-19.4,2.9-27.2,8.2C227.5,438.7,214.5,433.1,199.5,433.1L199.5,433.1L199.5,433.1z"/>
		</g>
		<path class="st10" d="M239.5,474.3c0,0-27.8-30.6-58-14.9c-10.8,5.6-17.6,15.8-20.9,25.9c-32.1-20.9-64.7,1.1-77,29.7
			c-5.4,12.4-5.7,28.4-0.7,42.6c-6.2,2.3-11.5,6.5-15,12.9c-7.6,14.1-9,36.8,9.3,49.9c-15.2,2-24.2,20.2-25.8,35.5
			c-1.7,15.2,5.7,29.3,15.3,41.3c7.9,9.8,18.2,16.8,30.4,19.9c12.2,3.1,34.1-0.7,42.5-10.2c5.7-6.4,10.5-23.8,6.3-32.4
			c17,1.8,29.5-9.5,37.5-24.6c6.9-13.1,7.2-30.6-1.4-42.5c-0.2-0.2-0.3-0.4-0.5-0.6c5.2-1.1,10.2-2.9,14.8-5.5
			c17.4-9.6,29-28.3,31.7-47.9c22.1,13.2,53.8,7,69.3-13.7c15.4-20.7,12.4-52.8-6.5-70.3C275.4,455.3,250.9,452.2,239.5,474.3z"/>
		<path class="st5" d="M132.6,603.3c8.9,24.4,6.4,48.4-7.9,65.8c-15.1,18.4-62.4,15.6-73.6-8.4c0.2,13.4,6.9,25.8,15.5,36.4
			c7.9,9.8,18.2,16.8,30.4,19.9s34.1-0.7,42.5-10.2c5.7-6.4,10.5-23.8,6.3-32.4c17,1.8,29.5-9.5,37.5-24.6
			c5.4-10.2,6.7-23.1,2.9-33.9C167.4,615.8,149.2,612.1,132.6,603.3z"/>
		<path class="st3" d="M181.3,606.6c-7.1,1.1-28,5.6-46.5-1.8c0,0,21.4,31.7,52.6,24.9c31.3-6.8,32.6-29.6,32.6-29.6
			S188.8,605.5,181.3,606.6z"/>
		<path class="st3" d="M160.6,485.3c0,0,21.5,13,27.8,25.1c0,0-1-38.1-31.3-53.1L160.6,485.3z"/>
		<path class="st3" d="M58.2,687.4c0,0-11.8-30.6,5.8-47.3c9.5-9,22.7-11.7,36-8.1c0,0-10-18-28.8-18.1
			C45.6,613.8,38,639.4,38,639.4L58.2,687.4z"/>
		<path class="st3" d="M227.8,553.2c0.9-12.4-2.9-29.7-7.5-42.4c0,0,33.5,10.2,31.9,58.2L227.8,553.2z"/>
		<path class="st3" d="M82.8,557.5c0,0,8.7,20.7,22,23.9c0,0-40.1,9.9-48.1-24.7L82.8,557.5z"/>
	</g>
	<g>
		<path class="st11" d="M1018.7,492.4c26.1,107.3,0.8,206.4-146.8,253.2c-150,47.5-225-16.7-266.4-118c-2.1-5.1-0.7-17.1,3.8-18.6
			c111.6-36,292.4-94.3,394.6-127.3C1008.3,480.3,1017.5,487.7,1018.7,492.4z"/>
		<g>
			<path class="st3" d="M1005.1,481.5c4.6,0,12.5,6.5,13.5,10.9c26.1,107.3,0.8,206.4-146.8,253.2c-34.6,10.9-65.1,16-92.2,16
				c-90.6,0-142.3-56-174.1-133.9c-2.1-5.1-0.7-17.1,3.8-18.6c111.6-36,292.4-94.3,394.6-127.3
				C1004.3,481.6,1004.7,481.5,1005.1,481.5 M1005.1,459.8c-2.7,0-5.4,0.4-7.9,1.2l-179.6,57.9l-215.1,69.4c-7,2.2-12.7,7.5-16,14.7
				c-4.5,9.7-5,23.5-1.2,32.8c18.7,45.9,42,80.1,71.2,104.6c33.8,28.4,75.2,42.8,123.1,42.8c30,0,63.2-5.7,98.8-17
				c74.8-23.7,125.8-62.4,151.5-115.1c22-45.1,25.4-100.3,9.9-164c-2.1-8.6-8.1-15-12.8-18.8
				C1022.1,464.5,1014.4,459.8,1005.1,459.8L1005.1,459.8z"/>
		</g>
		<path class="st12" d="M962.6,526.2c20.6,72.9-4.6,145.3-104.4,176.9c-101.9,32.3-162.2-11.3-188-82.5L962.6,526.2z"/>
		<path class="st11" d="M836.1,602.9c10.8,18.1,27.7,46.2,28.5,65.6c0.8,19.4-20.5,21.6-26.6,8.8c-8.8-18.5-13-56.8-14.1-70.1
			C822.9,593.9,826.8,587.3,836.1,602.9z"/>
		<path class="st11" d="M798.5,617.9c2.6,19,6.9,48.5-0.2,64.8c-7,16.2-27.4,9.9-27.9-2.9c-0.7-18.5,10.8-51.6,15.2-62.9
			C790,605.4,796.2,601.5,798.5,617.9z"/>
		<path class="st11" d="M765.6,624.7c-8.5,12.8-21.6,32.7-34.8,38c-13.2,5.3-22.7-10.7-16.1-18.5c9.5-11.3,34.5-23.9,43.3-27.9
			C766.9,612.3,772.9,613.6,765.6,624.7z"/>
		<path class="st11" d="M856.7,599.1c8.9,16.9,22.8,43.4,38,52.5c15.2,9.1,28.1-8,20.9-18.7c-10.3-15.4-38.9-35.6-49.1-42.2
			C856.3,584,849,584.4,856.7,599.1z"/>
		<path class="st11" d="M887.4,585.4c14.3,5.4,36.6,13.9,50.4,10.5c13.8-3.4,12.2-21.9,2.3-24.4c-14.3-3.6-41.9,0.8-51.5,2.7
			C879.1,576.1,875,580.7,887.4,585.4z"/>
		<path class="st13" d="M909.2,679.5c-26.2,0.7-51.7-4-74.7-16.7c-68.9-38.1-66.8-91.7-72.3-103.1C706.6,577.6,652.7,595,609.3,609
			c-4.5,1.5-5.8,13.5-3.8,18.6c41.3,101.3,116.4,165.5,266.4,118c92-29.1,136.4-78.6,150.6-137.8
			C1001.3,644.5,962.5,678.1,909.2,679.5z"/>
	</g>
	<g>
		<g>
			<g>
				<path class="st3" d="M435.1,266.3c1.9,13.8-32.2,22.7-46.1,21.7c-11.6-1-6.3-19.7-6.9-31.6c-0.8-16-15.8-52.9-23.3-74.6
					c-6-17.4,14.9-18.4,19.9-14.8c0.1,0,0.1,0,0.1,0c8.2,6.1,16.6,37.1,24,58.9C410.2,247.6,433.2,252.6,435.1,266.3z"/>
			</g>
		</g>
		<g>
			<path class="st3" d="M435.5,255.9c24.5,0,44.6,9.6,60,22.2c4.7,3.8,8.9,7.9,12.7,12c29.4,32.2,36.8,43.2,115.2,116.2
				C698,475.8,787.6,591,739,698.1C700.6,782.7,625.9,817,595,824.5c-15.2,6.7-44.2,14.7-80.1,14.7c-33,0-71.9-6.8-111.1-27.9
				c-103.7-55.7-97.7-200.9-85.1-302.1c1.4-11,2.6-21,3.7-30.3c8.3-67.9,10.6-92.4,13.4-130.7c1.1-15.2,12.8-68.7,65.6-86.6
				C413.6,257.7,424.9,255.9,435.5,255.9 M435.5,234.1v21.8V234.1c-13.4,0-27.2,2.4-41,7c-27.5,9.3-49.8,28.1-64.2,54.4
				c-10.5,19-15.2,38.9-16.1,51.2c-2.8,38.7-5.1,62.9-13.3,129.6c-0.8,6.7-1.7,13.8-2.6,21.4l-1.1,8.9
				c-5.7,45.2-11.9,112.5-0.9,174.5c12.6,71.2,45.3,121.4,97.3,149.4C431.2,850.8,472,861,514.9,861c44.7,0,76.1-11.3,87-15.8
				c40.5-10.4,117.1-50.6,156.9-138.1c13.1-28.8,18.1-59.9,14.8-92.2c-2.8-27.9-11.8-57-26.8-86.6c-28.9-57.2-75-106.6-108.5-137.9
				c-64.8-60.4-80.7-78-100.7-100.3c-4.1-4.6-8.4-9.3-13.3-14.7c-4.9-5.4-9.9-10.1-15.1-14.3C487.5,243.5,462,234.1,435.5,234.1
				L435.5,234.1z"/>
		</g>
		<path class="st9" d="M739,698.1C700.6,782.7,625.9,817,595,824.5c-29.1,12.8-109.4,30.8-191.2-13.2
			c-103.7-55.7-97.7-200.9-85.1-302.1c1.4-11,2.6-21,3.7-30.3c8.3-67.9,10.6-92.4,13.4-130.7c1.1-15.2,12.8-68.7,65.6-86.6
			c40.3-13.6,72-1.7,94.1,16.3c4.7,3.8,8.9,7.9,12.7,12c29.4,32.2,36.8,43.2,115.2,116.2C698,475.8,787.6,591,739,698.1z"/>
		<path class="st14" d="M696.3,690.8C667.6,761.7,609,789.3,584.6,795c-22.9,10.3-86.2,23.9-152-15.1
			c-83.4-49.3-81.7-172.2-73.7-257.7c0.9-9.3,1.6-17.8,2.3-25.6c5.2-57.3,6.5-78,7.9-110.5c0.6-12.9,8.7-58,50.3-72
			c31.7-10.7,57.1,0,75,15.7c3.8,3.3,7.2,6.8,10.4,10.5c24,27.9,30.1,37.4,93.8,100.9C659.2,501.6,732.7,601,696.3,690.8z"/>
		<g>
			<path class="st15" d="M619.5,574.6c22,58-1.3,120.6-51.8,139.7c-50.6,19.1-109.3-12.4-131.3-70.4
				c-26.2-69.2-14.3-161.6,36.3-180.7c18.1-6.8,38.7-3.4,58.9,7.1C567.7,488.9,602.7,530.1,619.5,574.6z"/>
			<path class="st16" d="M455.4,491.1c-14.9,24-19.8,84.3-3.3,131.4c16.5,47.1,53.5,52.7,84.2,44.9c30.7-7.7,49.1-68,30.6-110.5
				C537.7,490,485.9,441.9,455.4,491.1z"/>
		</g>
		<path class="st1" d="M471.9,516.1c-18.8,18.6-18.3,70.7-1.5,90.5c16.5,19.4,20.6-7.3,23.4-23.4c2-11.6,8.3-94-21-67.9
			C472.5,515.6,472.2,515.9,471.9,516.1z"/>
		<path class="st17" d="M576.5,744.9c-144.2,25.9-252.3-95.3-264.5-129.6c1.4,78.7,21.2,158.1,91.8,196.1c81.8,44,162,26,191.2,13.2
			c30.9-7.5,105.6-41.8,144-126.4c17.2-37.9,17-76.8,6.4-114.3C711.6,699.9,690.6,724.4,576.5,744.9z"/>
	</g>
	<g>
		<g>
			<path class="st3" d="M451.5,952.9h38.8c8.4,11.5,16.8,27.2,26.8,27.2c10,0,16.4-7.9,28.6-19.5c0,0,36.5,12.3,50.5,5.3l-5.6-59.5
				l-139.1-12.9V952.9z"/>
		</g>
		<g>
			<g>
				<path class="st3" d="M765.7,716.9c23.1,0,46.1,2.1,67.9,6c137.5,24.9,164.1,49.5,164.1,49.5s-124.3,93.8-213.2,147.1
					C743,944.3,693.3,951,652,951c-47.3,0-83.6-8.7-83.6-8.7C652.2,827,786.9,796,786.9,796c-5.4-0.4-10.7-0.6-15.9-0.6
					c-144.2,0-253.8,144.6-253.8,144.6c0-1.2,0.1-2.3,0.1-3.4c-2.3-6.3-62.3-128.2-160.3-135.9c0,0,75.4,36,117,129.1
					c0,0-14.3,3.5-34.6,3.5c-25.5,0-60.5-5.6-88.3-30.7c-49.9-45.1-116.6-132.8-116.6-132.8s26.3-31.5,113-36.7c3-0.2,6-0.3,9.1-0.3
					c77.1,0,160,58,162.2,151.2C533.9,766.3,652.3,716.9,765.7,716.9 M765.7,695.2c-64.3,0-125.2,15.1-171.4,42.4
					c-31.6,18.7-56.1,42.8-72.8,71.3c-10.1-19.5-24.2-37.1-41.7-52c-34.2-29.1-79.1-45.8-123.3-45.8l0,9.1l0-9.1
					c-3.5,0-7,0.1-10.4,0.3c-93.4,5.6-125.1,40.5-128.4,44.5c-6.5,7.8-6.8,19-0.6,27.1c2.8,3.7,68.5,89.9,119.3,135.8
					c33.2,30,74.3,36.3,102.9,36.3c22.3,0,38-3.7,39.8-4.1c6.3-1.5,11.5-5.8,14.4-11.6c0.2-0.3,0.3-0.6,0.4-0.9
					c0.6,1.1,1.1,2.1,1.5,2.9c0.5,8.9,6.4,16.6,14.9,19.4c2.2,0.7,4.5,1.1,6.8,1.1c6.7,0,13.2-3.1,17.3-8.6
					c0.1-0.1,4.5-5.9,12.6-14.9c-0.7,3.8-0.4,7.8,1,11.6c2.5,6.8,8.3,11.9,15.3,13.6c1.6,0.4,39.3,9.3,88.6,9.3
					c57,0,105.3-11.6,143.5-34.5c88.9-53.3,210-144.5,215.1-148.4c5.1-3.9,8.3-9.9,8.6-16.3c0.3-6.4-2.2-12.7-7-17.1
					c-5.2-4.8-38.2-30.1-175-54.9C814.1,697.3,790,695.2,765.7,695.2L765.7,695.2z"/>
			</g>
		</g>
		<g>
			<path class="st10" d="M347.5,733c79.5-4.8,169,54,171.3,150.9c18.2-141.6,186.1-184.3,314.7-161
				c137.5,24.9,164.1,49.5,164.1,49.5s-124.3,93.8-213.2,147.1c-88.9,53.3-224,22.7-224,22.7C644.1,827,786.9,796,786.9,796
				c-152-11.3-269.7,148-269.7,148c0-1.2,0.1,1.8,0.1,0.6c-2.3-6.3-54.5-125-160.3-144c0,0,79.5,36,121,129.1c0,0-77,17.9-127-27.2
				c-49.9-45.1-116.6-132.8-116.6-132.8S260.8,738.2,347.5,733z"/>
		</g>
		<g>
			<path class="st5" d="M858.5,850.7c-62.4,42.1-130.6,77-208.3,71.9c-3.7-0.2-6.4-3.4-5.4-7.1c15.1-57.9,62.9-84.9,111.5-110.5
				c-46.6,15.8-136.2,55.2-195.8,137.3c0,0,135.1,30.6,224-22.7c88.9-53.3,213.2-147.1,213.2-147.1s-0.9-0.8-3.1-2.2
				C945,786.6,899,823.3,858.5,850.7z"/>
			<path class="st5" d="M360.1,802.1c-1.3-0.6-2.5-1.2-3.8-1.7c25,22.4,47.4,49.5,72.2,93.1c0,0-21,6.4-55.2-8.5
				c-38.5-16.7-44.6-23.8-81.4-44.8c19.1,22.2,40.4,45.3,59.2,62.3c49.9,45.1,127,27.2,127,27.2C441.3,847.4,375,809.8,360.1,802.1z
				"/>
		</g>
	</g>
	<g>
		<path class="st3" d="M605.4,56.4c0,0,61.9,34.9,74.1,117.4c11.9,80-31.1,112.6-31.1,112.6c-57.8-35.9-89.6-97.7-83.7-152
			C571,77.9,605.4,56.4,605.4,56.4 M605.4,34.7c-4,0-8,1.1-11.5,3.3c-2,1.3-12.6,8.3-23.8,23.2c-14.6,19.4-23.9,43.9-26.9,71
			c-3.5,31.5,3.6,64.5,20.4,95.7c16.8,31.2,42.2,57.9,73.4,77.2c3.5,2.2,7.5,3.3,11.5,3.3c4.7,0,9.3-1.5,13.2-4.4
			c1.5-1.1,15-11.8,26.2-33.8c9.9-19.4,20.2-52.4,13.3-99.4c-13.6-92-82.1-131.6-85-133.2C612.8,35.6,609.1,34.7,605.4,34.7
			L605.4,34.7z"/>
	</g>
	<path class="st10" d="M648.4,286.5c-57.8-35.9-89.6-97.7-83.7-152c6.2-56.6,40.6-78,40.6-78s61.9,34.9,74.1,117.4
		C691.4,253.8,648.4,286.5,648.4,286.5z"/>
	<path class="st5" d="M679.6,173.9c-6.1-41.1-24.5-70.4-41.5-89.5c0.5,1.3,0.7,2.8,1.4,4c13.4,22.6,34,92.8,9.2,147.5
		c-3.2,7.2-14.4-33.5-16.6-28c-3.7,9.3-0.9,34.3-3.3,34.2c-18.4-1-41.9-23.1-52.9-39.2c13.6,32.3,38.5,62.4,72.6,83.5
		C648.4,286.5,691.4,253.8,679.6,173.9z"/>
	<path class="st3" d="M650.5,295.7c-9.1-11-20-37.6-27.6-82.1c-3.1-18.2-7-44.6-8.7-61.5c-1-10.2,1.3-13.6,5.4-3.8
		c6.4,15,13.2,42.7,22.9,68.2c13.8,36.4,14.3,77.2,14.3,77.2L650.5,295.7z"/>
</g>
</svg>
