<?xml version="1.0" encoding="utf-8"?>
<!-- Generator: Adobe Illustrator 25.2.0, SVG Export Plug-In . SVG Version: 6.00 Build 0)  -->
<svg version="1.1" xmlns="http://www.w3.org/2000/svg" xmlns:xlink="http://www.w3.org/1999/xlink" x="0px" y="0px"
	 viewBox="0 0 500 500" style="enable-background:new 0 0 500 500;" xml:space="preserve">
<style type="text/css">
	.st0{fill:#FFFFFF;}
	.st1{opacity:0.59;fill:#FFFFFF;}
	.st2{fill:#FFFFFF;stroke:#FFFFFF;stroke-width:16;stroke-miterlimit:10;}
	.st3{fill:#455218;}
	.st4{fill:#99C12A;}
	.st5{fill:#7C943A;}
	.st6{fill:#E36B00;}
	.st7{fill:#D15E00;}
	.st8{fill:#C74600;}
	.st9{fill:#7E9E2C;}
	.st10{fill:#B3C948;}
	.st11{fill:#E74641;}
	.st12{fill:#E7807D;}
	.st13{fill:#C9BDBD;}
	.st14{fill:#ECC54A;}
	.st15{fill:#683C1D;}
	.st16{fill:#814C2E;}
	.st17{fill:#D9CCCC;}
	.st18{font-family:'Gotham-Ultra';}
	.st19{font-size:62.9789px;}
</style>
<g id="BACKGROUND">
</g>
<g id="OBJECTS">
</g>
<g id="TEXTS">
	<g>
		<g>
			<g>
				<g>
					<g>
						<g>
							<g>
								<g>
									<g>
										<path class="st0" d="M380.3,128.4c-1.2,0-2.3-0.2-3.3-0.7c-2.3-1-4.3-2.6-5.9-4.7c-5.7-0.5-12.5-3.6-15.1-9.2
											c-1.4-3-0.9-4.6,1.6-13.3c3.4-11.9,10.5-36.8,9.4-50.6c-0.2-2.7,0.9-5.3,3-6.9c1.4-1.1,3.2-1.7,5-1.7
											c0.8,0,1.6,0.1,2.4,0.4c3.2,1,8.9,4,18,8.7c4.9,2.6,11.6,6.1,13.3,6.7c1.2,0.4,2.3,1.1,3.1,2c0.4,0,0.7-0.1,1.1-0.1
											c0.9,0,1.7,0.1,2.6,0.4c2,0.7,4.9,1.6,7.5,2.5l4,1.3c2.4,0.8,4.3,2.7,5.1,5.1c0.8,2.4,0.4,5-1.1,7.1
											c-7.3,10.4-17.3,22.9-26.7,33.5C387,128.3,383.6,128.4,380.3,128.4C380.4,128.4,380.3,128.4,380.3,128.4z"/>
										<path class="st0" d="M375,49.2c5.3,1.7,26.3,13.7,31.1,15.4c-4.8,10.8-6.9,19.3-16.5,32.3c13-12.3,16.7-18.9,23.3-30
											c3.1,1,8.4,2.8,11.5,3.9c-15.1,21.3-40,49.7-44,49.7c-0.1,0-0.2,0-0.2,0c-2-0.9-3.6-3.2-4.3-6c-1,0.5-2.1,0.7-3.3,0.7
											c-3.8,0-8.1-2.3-9.2-4.6C362.7,109.2,376.7,69.9,375,49.2 M375,33.2c-3.6,0-7.1,1.2-10,3.5c-4.2,3.3-6.4,8.5-6,13.9
											c1.1,12.3-6,37.1-9.1,47.7c-0.7,2.4-1.2,4.3-1.6,5.8c-0.7,2.9-2,7.6,0.5,13c3.3,7.3,10.9,11.8,18.2,13.3
											c2,2,4.3,3.6,6.9,4.7c2,0.9,4.2,1.3,6.4,1.3c7.3,0,12.6-4.5,17.5-9.2c3.4-3.2,7.7-7.7,12.3-13.1
											c9.6-10.8,19.8-23.6,27.3-34.2c2.9-4.1,3.7-9.4,2.2-14.2c-1.6-4.8-5.3-8.6-10.1-10.2l-3.8-1.3c-2.7-0.9-5.7-1.9-7.7-2.6
											c-1.1-0.4-2.3-0.6-3.5-0.8c-1-0.6-2-1.1-3.1-1.5c-1.8-0.7-8.1-4-12.2-6.2c-9.4-4.9-15.3-8-19.2-9.3
											C378.2,33.5,376.6,33.2,375,33.2L375,33.2z"/>
									</g>
									<path class="st0" d="M412.8,66.9c-6.6,11.2-10.3,17.8-23.3,30c9.6-13,11.7-21.5,16.5-32.3c-4.8-1.6-25.8-13.7-31.1-15.4
										c1.8,20.7-12.2,60-11.6,61.3c1.4,3,8.4,6,12.5,3.8c0.7,2.8,2.2,5.2,4.3,6c3.1,1.3,28.8-27.8,44.3-49.6
										C421.3,69.7,415.9,67.9,412.8,66.9z"/>
									<path class="st0" d="M412.8,66.9c-6.6,11.2-10.3,17.8-23.3,30c9.6-13,11.7-21.5,16.5-32.3c-0.9-0.3-2.4-1-4.2-1.9
										c-0.3,0.5-0.7,0.9-1.1,1.4c-2.3,9.9-4.3,19.3-16,24.3c-5.2,2.2-10.7,2.9-16.2,2.3c-2.9,10.9-5.6,19.2-5.3,19.8
										c1.4,3,8.4,6,12.5,3.8c0.7,2.8,2.2,5.2,4.3,6c3.1,1.3,28.8-27.8,44.3-49.6C421.3,69.7,415.9,67.9,412.8,66.9z"/>
									<g>
										<path class="st0" d="M355.9,196.6c-4,8-9.8,14.8-15.7,23.2c-5.4,7.7-10.9,17.3-17.4,25c-11.8,14-23.2,26.4-34.4,36.6
											c-3.5,3.2-20.7,15.6-21.5,0.9c-0.3-5.4,2.8-10.7,4.8-15c3.3-7.2,7.2-14.4,10.4-22.1c3.2-7.6,5.7-15.8,8.7-23.6
											c3.2-8.4,7.8-16,11.3-23.9c6.4-14.6,12.7-28.1,18.2-43.3c2.8-7.6,7.9-13.6,11.3-21.2c3-6.7,3.7-14.8,8.5-20.6
											c8.6-10.5,27.9-12.5,39.8-6.1c8.3,4.5,12.1,13,13.2,22.1c1,8.8-3.3,14.4-8.2,21.2c-6,8.2-9.5,18.8-14.9,27.4
											C365.2,184.6,359.3,189.9,355.9,196.6z"/>
										<g>
											<path class="st0" d="M272.6,297.4c-6,0-13.1-3.8-13.7-14.6c-0.4-6.7,2.5-12.5,4.6-16.8c0.3-0.7,0.6-1.3,0.9-2
												c1.3-2.8,2.7-5.7,4.1-8.4c2.1-4.3,4.3-8.8,6.2-13.4c0.8-2,1.5-3.8,2.2-5.7c0.2-0.5,0.4-1,0.6-1.6c0.7-2,1.4-4,2.1-6.1
												c1.2-3.3,2.3-6.8,3.7-10.1c2-5.3,4.5-10.2,6.9-15c1.6-3.2,3.2-6.3,4.5-9.3c1.1-2.4,2.1-4.8,3.2-7.2
												c1.9-4.4,3.8-8.5,5.6-12.8c0-0.1,0-0.1,0.1-0.2c0.5-1,0.9-2,1.3-3l0.5-1.2c2.9-6.8,5.2-12.7,7.4-18.6
												c1.8-4.9,4.3-9.1,6.7-13.1c1.8-2.9,3.4-5.7,4.8-8.7c0.9-2,1.6-4.3,2.3-6.7c1.5-5,3.2-10.8,7.3-15.7
												c6.5-7.9,17.8-12.6,30.3-12.6c7.2,0,13.9,1.6,19.5,4.6c9.8,5.3,15.8,15,17.4,28.2c1.4,11.7-4.3,19.5-9.3,26.3l-0.4,0.5
												c-3,4.1-5.3,9-7.8,14.2c-2.1,4.3-4.2,8.7-6.8,12.8c-2.4,3.8-5,7-7.3,9.9c-2.6,3.3-4.9,6.1-6.4,9
												c-3.2,6.4-7.3,11.9-11.6,17.7c-1.5,2.1-3.1,4.2-4.7,6.4c-0.7,1-1.5,2.1-2.3,3.3c0,0,0,0.1-0.1,0.1
												c-1,1.5-2.1,3.1-3.1,4.7c-3.6,5.5-7.7,11.9-12.4,17.4c-6.7,8-12.8,14.9-18.7,21.1l-0.8,0.9c-0.5,0.5-0.9,1-1.4,1.5
												c-4.8,5.1-9.6,9.8-14.3,14C293.6,287.5,282.6,297.4,272.6,297.4z"/>
											<path class="st0" d="M364.1,102.7c5.6,0,11.2,1.2,15.7,3.6c8.4,4.5,12.2,13,13.2,22.1c1.1,8.8-3.3,14.4-8.2,21.2
												c-6.1,8.2-9.5,18.9-14.9,27.4c-4.7,7.5-10.6,12.8-14,19.6c-4,8-9.7,14.8-15.7,23.2c-0.8,1.1-1.6,2.3-2.4,3.5
												c-1,1.6-2.1,3.2-3.2,4.8c-3.7,5.6-7.5,11.5-11.8,16.7c-6.2,7.4-12.3,14.4-18.4,20.8c-0.7,0.8-1.4,1.5-2.1,2.2
												c-4.7,4.9-9.3,9.5-13.9,13.7c-2.3,2.1-10.2,7.9-15.7,7.9c-3.1,0-5.5-1.8-5.8-7c-0.3-5.4,2.8-10.7,4.8-15
												c3.3-7.2,7.2-14.4,10.4-22.1c0.8-2,1.6-4,2.4-6c0.2-0.5,0.4-1,0.5-1.5c1.9-5.4,3.7-10.8,5.8-16.2
												c3.2-8.4,7.8-16.1,11.3-23.9c3-6.8,6-13.4,8.8-20c0.7-1.4,1.3-2.9,1.9-4.4c2.6-6.1,5.1-12.4,7.5-19
												c2.8-7.6,7.9-13.6,11.3-21.3c3-6.7,3.7-14.8,8.5-20.6C345.4,106,354.9,102.7,364.1,102.7 M364.1,86.7v16V86.7
												C364.1,86.7,364.1,86.7,364.1,86.7c-14.8,0-28.4,5.8-36.4,15.6c-5.1,6.2-7.2,13-8.8,18.5c-0.7,2.2-1.3,4.2-2,5.8
												c-1.1,2.5-2.7,5.1-4.3,7.8c-2.5,4.1-5.3,8.8-7.4,14.5c-2.1,5.7-4.4,11.5-7.2,18.2l-0.5,1.1c-0.4,1-0.8,2-1.2,2.8
												c-0.1,0.1-0.1,0.2-0.1,0.3c-1.8,4.2-3.6,8.3-5.6,12.7c-1.1,2.4-2.1,4.8-3.2,7.2c-1.2,2.8-2.7,5.8-4.3,8.9
												c-2.5,4.9-5.1,10-7.3,15.7c-1.4,3.5-2.6,7-3.7,10.4c-0.7,2-1.4,4-2.1,5.9c-0.2,0.5-0.4,1-0.6,1.7
												c-0.6,1.7-1.3,3.4-2.1,5.3c-1.8,4.3-3.8,8.5-6,12.9c-1.4,2.8-2.8,5.7-4.1,8.6c-0.3,0.6-0.6,1.2-0.9,1.8
												c-2.3,4.8-5.8,12-5.4,20.8c0.4,6.3,2.4,11.5,6,15.4c4,4.3,9.6,6.7,15.7,6.7c12.8,0,25.1-10.8,26.5-12c0,0,0,0,0,0
												c4.7-4.3,9.7-9.1,14.7-14.4c0.5-0.5,0.9-1,1.4-1.5l0.7-0.8c0,0,0.1-0.1,0.1-0.1c6-6.3,12.2-13.4,19-21.4
												c5-5.9,9.2-12.5,13-18.2c1.1-1.7,2.2-3.4,3.1-4.6c0-0.1,0.1-0.1,0.1-0.2c0.7-1,1.4-2.1,2.1-3.1c1.5-2.1,3.1-4.2,4.6-6.3
												c4.3-5.8,8.8-11.9,12.3-18.9c1.1-2.2,3.1-4.7,5.4-7.6c2.4-3,5.2-6.5,7.8-10.7c2.8-4.5,5-9.1,7.2-13.6
												c2.3-4.9,4.5-9.4,7.1-12.9l0.4-0.5c5.3-7.2,12.6-17.2,10.8-32c-1.9-15.7-9.5-27.9-21.6-34.3
												C380.6,88.6,372.6,86.7,364.1,86.7L364.1,86.7z"/>
										</g>
										<path class="st0" d="M386.9,146.8c-0.7,0.9-1.4,1.9-2.1,2.9c-1.1,1.5-2.1,3.1-3.1,4.8c-4.3,7.3-7.4,15.7-11.8,22.7
											c-4.7,7.5-10.6,12.8-14,19.6c-0.6,1.2-1.2,2.3-1.9,3.5c-1.5,2.6-3.2,5.1-5,7.6c-2.7,3.9-5.7,7.7-8.8,12
											c-0.8,1.1-1.6,2.3-2.4,3.5c-1,1.5-2.1,3.2-3.2,4.8c-3.7,5.6-7.5,11.5-11.8,16.7c-6.2,7.4-12.4,14.4-18.4,20.8
											c-0.7,0.7-1.4,1.5-2.1,2.2c-4.7,4.9-9.3,9.5-13.9,13.6c-3.5,3.2-20.7,15.6-21.5,0.9c-0.3-5.5,2.8-10.7,4.8-15
											c3.3-7.2,7.2-14.4,10.4-22.1c0.8-2,1.6-4,2.4-6c0.2-0.5,0.4-1,0.5-1.5c1.9-5.3,3.7-10.8,5.8-16.2
											c3.2-8.4,7.8-16,11.3-23.9c3-6.8,6-13.4,8.8-20c0.7-1.4,1.3-2.9,1.9-4.4c2.1-5,4.2-10.1,6.2-15.3c0.5-1.2,0.9-2.4,1.4-3.6
											c0.7-1.9,1.6-3.8,2.5-5.6c2.8-5.2,6.2-10,8.7-15.7c3-6.7,3.7-14.8,8.5-20.6c8.6-10.5,27.9-12.5,39.8-6.1
											c8.4,4.5,12.2,13,13.2,22.1C393.9,136,390.9,141.2,386.9,146.8z"/>
										<path class="st0" d="M391.7,121.8c-0.3,0.9-0.6,1.6-0.9,2.2c-2.8,6.2-5.2,12.4-8,18.6c-5.3,11.6-13.4,23.5-23.4,31.5
											c-10.2,8.1-25.5,12.8-38,7.4c-3.7-1.6-6.7-3.9-9.3-6.6c-0.4,0.9-0.8,1.8-1.2,2.7c-2.8,6.6-5.8,13.2-8.8,20
											c-3.5,7.9-8.1,15.5-11.3,23.9c-2.1,5.3-3.8,10.8-5.8,16.2c-0.2,0.5-0.4,1-0.5,1.5c-0.8,2-1.6,4-2.4,6
											c-3.2,7.7-7.1,14.9-10.4,22.1c-2,4.3-5.1,9.5-4.8,15c0.8,14.7,18,2.3,21.5-0.9c4.6-4.2,9.2-8.7,13.9-13.6
											c0.7-0.7,1.4-1.5,2.1-2.2c6-6.4,12.2-13.3,18.4-20.8c4.3-5.1,8.2-11,11.8-16.7c1.1-1.6,2.2-3.3,3.2-4.8
											c0.8-1.2,1.6-2.4,2.4-3.5c3-4.3,6-8.2,8.8-12c1.8-2.5,3.5-5,5-7.6c0.7-1.1,1.3-2.3,1.9-3.5c3.4-6.7,9.3-12,14-19.6
											c4.4-7,7.5-15.4,11.8-22.7c1-1.7,2-3.3,3.1-4.8c0.7-1,1.4-1.9,2.1-2.9c4-5.6,7.1-10.8,6.1-18.3
											C392.8,126.2,392.3,124,391.7,121.8z"/>
										<path class="st0" d="M381.7,154.4c-1.1-0.5-2.2-1.1-3.2-1.7c-10-6.4-13.8-14.5-13.8-14.5c7.3,1.9,11.3,2.6,18.9,6.7
											c1.2,0.6,2.2,1.3,3.3,1.9L381.7,154.4z"/>
										<path class="st0" d="M345.7,165.2c-0.9,0-13.3-0.9-26.8-7.2c0.5-1.2,0.9-2.4,1.4-3.6c0.7-1.9,1.6-3.8,2.5-5.6
											c0.3,0.1,0.6,0.2,1,0.4C331.5,152.1,337.4,158,345.7,165.2z"/>
										<path class="st0" d="M354,200.1c-1.5,2.6-3.2,5.1-5,7.6c-7.2-4.6-12.6-10-18.5-16.1C330.5,191.6,339.4,191.6,354,200.1z"
											/>
										<g>
											<path class="st0" d="M288.9,222.3c-1,2.9-2.2,5.7-3.4,8.6c11,5.9,25.3,13.3,25.3,13.3S301.4,231.7,288.9,222.3z"/>
										</g>
									</g>
								</g>
							</g>
						</g>
					</g>
				</g>
				<g>
					<path class="st0" d="M403.4,56.7c0,0-3.2,21.8-13.9,40.2c0,0,16.5-10,28.3-33.7L403.4,56.7z"/>
				</g>
			</g>
			<g>
				<g>
					<path class="st0" d="M171.6,293.1c-1.9,0-3.7-0.6-5.2-1.9c-7.8-6.7-14-11.5-17.5-13.4c-5.7-3.2-10.9-4.7-16.2-4.7
						c-0.7,0-1.4,0-2.1,0.1c-4.6,0.3-15.9,2.8-19.8,3.7c-0.6,0.1-1.2,0.2-1.8,0.2c-2.2,0-4.3-0.9-5.8-2.5c-2-2-2.7-5-1.9-7.7
						l2.5-8.8c0.8-3,3.3-5.2,6.3-5.7c0.6-0.1,3.1-0.5,6.4-1c-1.3-0.9-2.6-1.8-3.9-2.6c-3.2-2.1-4.5-6-3.1-9.5l3.6-9.4
						c0.9-2.5,3-4.3,5.6-4.9c0.6-0.2,1.3-0.2,1.9-0.2c1.5,0,3,0.4,4.2,1.2l6.2-7.7c1.5-1.9,3.8-3,6.2-3c0.3,0,0.6,0,0.8,0
						c0.7,0.1,1.4,0.2,2.1,0.5c-0.2-1.7,0.1-3.5,1-5c1.3-2.3,3.7-3.8,6.3-4.1l10.2-0.9c0.2,0,0.4,0,0.7,0c2,0,4,0.8,5.5,2.2
						c1.7,1.6,2.6,3.8,2.5,6c0,0,0,0,0,0c0,0,0,2.6,1,8.4c0.2,0.9,0.3,1.9,0.4,3c0.5,4.5,1.3,10.6,5.1,13.8
						c3.2,2.8,10.6,8.3,21,15.5c3.3,2.3,4.4,6.8,2.5,10.3c-5.1,9.5-11.4,18.1-18.7,25.6C175.8,292.3,173.7,293.1,171.6,293.1z"/>
					<path class="st0" d="M158.2,213.8c0,0-0.1,3,1.1,9.9c0.8,4.7,0.9,15.2,8.1,21.5c4.4,3.8,14.4,11,21.6,16
						c-4.6,8.6-10.3,16.6-17.4,23.8c-6.1-5.2-13.9-11.6-18.8-14.4c-7.9-4.4-14.4-5.7-20.1-5.7c-0.9,0-1.8,0-2.6,0.1
						c-6.2,0.4-21.1,3.9-21.1,3.9l2.5-8.8c0,0,15.2-2.7,22.3-2.7c0.3,0,0.7,0,1,0c0.1,0,0.1,0,0.2,0c6,0-18-15.6-18-15.6l3.6-9.4
						c0,0,13.7,12.1,17.3,12.1c0.3,0,0.5-0.1,0.7-0.2c2.2-2.1-8.2-12.7-8.2-12.7l6.9-8.5c0,0,6.6,13,12.8,14.4
						c0.5,0.1,0.9,0.2,1.3,0.2c4.5,0,1.9-7,0.4-12.9c-1.7-6.4-3.6-10.2-3.6-10.2L158.2,213.8 M158.4,197.8c-0.5,0-1.1,0-1.6,0.1
						l-10.2,0.9c-5.3,0.5-10.2,3.4-12.7,8.1c-0.1,0.3-0.3,0.5-0.4,0.8c-3.4,0.8-6.5,2.7-8.8,5.5l-2.8,3.5c-0.4,0-0.9-0.1-1.3-0.1
						c-1.3,0-2.6,0.2-3.9,0.5c-5.1,1.3-9.2,4.9-11.1,9.9l-3.6,9.4c-1.4,3.7-1.4,7.6-0.1,11.1c-2.8,2.1-4.9,5-5.8,8.5l-2.5,8.8
						c-1.5,5.5-0.1,11.3,3.8,15.4c3.1,3.2,7.2,4.9,11.6,4.9c1.2,0,2.4-0.1,3.7-0.4c5.5-1.3,15.2-3.3,18.5-3.5c0.5,0,1-0.1,1.5-0.1
						c0,0,0,0,0,0c2.5,0,6.4,0.4,12.4,3.7c1.1,0.6,5.5,3.3,16.1,12.5c3,2.6,6.7,3.9,10.4,3.9c4.2,0,8.3-1.6,11.5-4.8
						c7.9-8.1,14.6-17.3,20.1-27.5c3.8-7.1,1.7-16-4.9-20.6c-10-7-17.4-12.5-20.3-15c-1.4-1.3-2.1-6.3-2.4-8.8
						c-0.1-1.1-0.3-2.2-0.5-3.3c-0.7-4.1-0.8-6.3-0.9-6.9c0.3-4.6-1.4-8.8-4.7-12C166.5,199.2,162.5,197.8,158.4,197.8L158.4,197.8z
						 M158.2,229.8L158.2,229.8L158.2,229.8L158.2,229.8z"/>
				</g>
				<path class="st0" d="M152.8,270.8c4.9,2.7,12.7,9.1,18.8,14.4c7.1-7.2,12.8-15.2,17.4-23.8c-7.2-5-17.3-12.2-21.6-16
					c-7.2-6.3-7.3-16.8-8.1-21.5c-1.2-6.9-1.1-9.9-1.1-9.9l-10.2,0.9c0,0,1.9,3.8,3.6,10.2c1.7,6.4,4.6,14.1-1.6,12.8
					c-6.2-1.3-12.8-14.4-12.8-14.4l-6.9,8.5c0,0,10.4,10.6,8.2,12.7c-2.2,2.1-18-11.8-18-11.8l-3.6,9.4c0,0,24.4,15.8,17.8,15.6
					c-6.6-0.3-23.3,2.7-23.3,2.7l-2.5,8.8c0,0,14.9-3.5,21.1-3.9C136.3,264.8,143.7,265.7,152.8,270.8z"/>
				<g>
					<path class="st0" d="M85.7,287c-2.1,0-4-0.2-5.7-0.7c-6.2-1.6-11.7-5.2-16-10.4c-5.8-7.2-8.4-14.6-7.6-21.8
						c0.6-5.1,2.6-10.7,6.2-14.8c-3.1-6.8-2.2-14.9,1.1-21c1-1.8,2.3-3.5,3.8-4.8c-0.7-5.5-0.1-11.1,2-15.9
						c5-11.6,15.8-19.4,26.9-19.4c2.2,0,4.4,0.3,6.5,0.9c2.1-2.8,4.8-5.2,7.9-6.8c3.4-1.8,6.9-2.6,10.6-2.6c5.8,0,10.8,2.2,14.5,4.5
						c3-2.1,6.6-3.2,10.5-3.2c5.5,0,11.1,2.3,15.5,6.3c10.4,9.5,11.9,26.5,3.5,37.8c-5.2,7-13.8,11.2-23.1,11.2c0,0,0,0,0,0
						c-1.6,0-3.2-0.1-4.7-0.4c-2.7,6.2-7.2,11.4-12.9,14.7c0.9,5.2,0.1,11-2.5,15.9c-3.3,6.3-7.9,10.6-13.2,12.6
						c-0.7,4.4-2.6,8.6-4.7,11C99.8,285.2,91.4,287,85.7,287z"/>
					<path class="st0" d="M121.5,177.6c8.6,0,15.4,7.5,15.4,7.5c2.3-4.4,5.9-6.2,9.6-6.2c3.5,0,7.2,1.6,10.1,4.2
						c7.3,6.7,8.5,19.1,2.5,27.1c-3.8,5.1-10.3,8-16.6,8c-3.5,0-7-0.9-10.1-2.7c-1.1,7.6-5.5,14.8-12.2,18.5c-1.8,1-3.7,1.7-5.7,2.1
						c0.1,0.1,0.1,0.2,0.2,0.2c3.3,4.6,3.2,11.3,0.6,16.4c-2.9,5.4-7.2,9.6-13.1,9.6c-0.4,0-0.9,0-1.4-0.1c1.6,3.3-0.3,10-2.4,12.5
						c-2.5,2.8-8.1,4.3-12.6,4.3c-1.4,0-2.6-0.1-3.7-0.4c-4.7-1.2-8.7-3.9-11.7-7.7c-3.7-4.6-6.5-10-5.9-15.9
						c0.6-5.9,4.1-12.9,10-13.7c-7-5-6.5-13.8-3.6-19.2c1.3-2.5,3.4-4.1,5.8-5c-1.9-5.5-1.8-11.6,0.3-16.4c3.4-8,11-14.6,19.6-14.6
						c3.3,0,6.7,1,10.1,3.2c1.3-3.9,3.9-7.8,8.1-10C117,178.1,119.3,177.6,121.5,177.6 M121.5,161.6
						C121.5,161.6,121.5,161.6,121.5,161.6c-5,0-9.8,1.2-14.3,3.5c-2.6,1.4-5.1,3.1-7.2,5.2c-1.2-0.1-2.4-0.2-3.6-0.2
						c-14.4,0-27.9,9.5-34.3,24.3c-2.2,5-3.2,10.6-2.9,16.3c-0.9,1.2-1.8,2.5-2.5,3.8c-3.7,6.9-5.1,15.5-3,23.6
						c-2.9,4.7-4.7,10.1-5.2,15.2c-1,9.4,2.1,18.7,9.3,27.7c5.3,6.6,12.3,11.1,20.2,13.1c2.4,0.6,5,0.9,7.7,0.9
						c7.7,0,18.3-2.6,24.6-9.7c2.4-2.7,4.4-6.5,5.7-10.7c5.4-3.1,10-8,13.4-14.4c2.6-5,3.9-10.4,3.9-15.8c3.6-2.8,6.6-6.3,9.1-10.2
						c0,0,0.1,0,0.1,0c11.7,0,22.7-5.4,29.5-14.4c10.8-14.5,8.8-36.2-4.5-48.4c-5.8-5.4-13.5-8.5-20.9-8.5c-3.7,0-7.2,0.7-10.4,2.1
						C132,163,127.1,161.6,121.5,161.6L121.5,161.6L121.5,161.6z"/>
				</g>
				<path class="st0" d="M136.9,185c0,0-10.7-11.8-22.4-5.7c-4.2,2.2-6.8,6.1-8.1,10c-12.4-8-24.9,0.4-29.7,11.4
					c-2.1,4.8-2.2,11-0.3,16.4c-2.4,0.9-4.4,2.5-5.8,5c-2.9,5.4-3.5,14.2,3.6,19.2c-5.9,0.8-9.3,7.8-10,13.7
					c-0.6,5.9,2.2,11.3,5.9,15.9c3.1,3.8,7,6.5,11.7,7.7c4.7,1.2,13.1-0.3,16.4-3.9c2.2-2.5,4-9.2,2.4-12.5
					c6.5,0.7,11.4-3.7,14.4-9.5c2.7-5,2.8-11.8-0.6-16.4c-0.1-0.1-0.1-0.2-0.2-0.2c2-0.4,3.9-1.1,5.7-2.1
					c6.7-3.7,11.2-10.9,12.2-18.5c8.5,5.1,20.8,2.7,26.7-5.3c5.9-8,4.8-20.4-2.5-27.1C150.8,177.7,141.3,176.5,136.9,185z"/>
				<path class="st0" d="M95.7,234.8c3.4,9.4,2.4,18.7-3,25.3c-5.8,7.1-24.1,6-28.4-3.2c0.1,5.2,2.7,9.9,6,14
					c3.1,3.8,7,6.5,11.7,7.7c4.7,1.2,13.1-0.3,16.4-3.9c2.2-2.5,4-9.2,2.4-12.5c6.5,0.7,11.4-3.7,14.4-9.5c2.1-3.9,2.6-8.9,1.1-13.1
					C109.2,239.6,102.1,238.2,95.7,234.8z"/>
				<path class="st0" d="M114.5,236.1c-2.7,0.4-10.8,2.2-17.9-0.7c0,0,8.2,12.2,20.3,9.6c12.1-2.6,12.5-11.4,12.5-11.4
					S117.4,235.6,114.5,236.1z"/>
				<path class="st0" d="M106.5,189.3c0,0,8.3,5,10.7,9.7c0,0-0.4-14.7-12.1-20.5L106.5,189.3z"/>
				<path class="st0" d="M67.1,267.2c0,0-4.5-11.8,2.2-18.2c3.7-3.5,8.8-4.5,13.9-3.1c0,0-3.8-6.9-11.1-7c-9.9,0-12.8,9.8-12.8,9.8
					L67.1,267.2z"/>
				<path class="st0" d="M132.4,215.5c0.3-4.8-1.1-11.5-2.9-16.4c0,0,12.9,3.9,12.3,22.4L132.4,215.5z"/>
				<path class="st0" d="M76.5,217.1c0,0,3.3,8,8.5,9.2c0,0-15.4,3.8-18.5-9.5L76.5,217.1z"/>
			</g>
			<g>
				<path class="st0" d="M437.3,192c10.1,41.3,0.3,79.6-56.6,97.6c-57.8,18.3-86.7-6.4-102.7-45.5c-0.8-1.9-0.3-6.6,1.5-7.2
					c43-13.9,112.7-36.4,152.1-49.1C433.2,187.4,436.8,190.2,437.3,192z"/>
				<g>
					<path class="st0" d="M345.1,303.8c-34.1,0-59.2-19-74.5-56.6c-1.4-3.5-1.2-8.7,0.5-12.3c1.3-2.7,3.4-4.6,5.9-5.5l152.1-49.1
						c0.9-0.3,1.9-0.5,2.9-0.5c5.4,0,11.7,5,13,10.3c12.9,53.1-8.5,90.2-61.9,107.1C369.4,301.6,356.7,303.8,345.1,303.8z"/>
					<path class="st0" d="M432,187.8c1.8,0,4.8,2.5,5.2,4.2c10.1,41.3,0.3,79.6-56.6,97.6c-13.3,4.2-25.1,6.2-35.6,6.2
						c-34.9,0-54.9-21.6-67.1-51.6c-0.8-1.9-0.3-6.6,1.5-7.2c43-13.9,112.7-36.4,152.1-49.1C431.7,187.9,431.9,187.8,432,187.8
						 M432,171.8c-1.8,0-3.6,0.3-5.4,0.8l-65.5,21.1l-86.6,27.9c-4.7,1.5-8.5,5-10.7,9.7c-2.6,5.7-2.9,13.2-0.6,18.7
						c7.7,18.9,17.4,33,29.6,43.3c14.4,12.1,32.1,18.3,52.3,18.3c12.3,0,25.9-2.3,40.4-6.9c30.9-9.8,52.1-26,62.9-48.3
						c9.3-19,10.8-42,4.4-68.3C450.6,179.3,441.1,171.8,432,171.8L432,171.8z"/>
				</g>
				<path class="st0" d="M415.6,205.1c7.9,28.1-1.8,56-40.2,68.2c-39.3,12.4-62.5-4.4-72.5-31.8L415.6,205.1z"/>
				<path class="st0" d="M366.9,234.6c4.2,7,10.7,17.8,11,25.3c0.3,7.5-7.9,8.3-10.3,3.4c-3.4-7.1-5-21.9-5.4-27
					C361.8,231.1,363.3,228.6,366.9,234.6z"/>
				<path class="st0" d="M352.4,240.4c1,7.3,2.7,18.7-0.1,25c-2.7,6.3-10.6,3.8-10.8-1.1c-0.3-7.1,4.2-19.9,5.9-24.3
					C349.1,235.6,351.5,234.1,352.4,240.4z"/>
				<path class="st0" d="M339.7,243c-3.3,4.9-8.3,12.6-13.4,14.7c-5.1,2.1-8.8-4.1-6.2-7.1c3.7-4.4,13.3-9.2,16.7-10.7
					C340.2,238.2,342.5,238.8,339.7,243z"/>
				<path class="st0" d="M374.8,233.1c3.4,6.5,8.8,16.7,14.6,20.2c5.9,3.5,10.8-3.1,8.1-7.2c-4-5.9-15-13.7-18.9-16.3
					S371.9,227.5,374.8,233.1z"/>
				<path class="st0" d="M386.7,227.9c5.5,2.1,14.1,5.4,19.4,4.1c5.3-1.3,4.7-8.5,0.9-9.4c-5.5-1.4-16.2,0.3-19.8,1
					C383.5,224.3,381.9,226.1,386.7,227.9z"/>
				<path class="st0" d="M395.1,264.1c-10.1,0.3-19.9-1.5-28.8-6.4c-26.6-14.7-25.8-35.4-27.9-39.7c-21.4,6.9-42.2,13.6-58.9,19
					c-1.7,0.6-2.3,5.2-1.5,7.2c15.9,39,44.9,63.8,102.7,45.5c35.4-11.2,52.6-30.3,58-53.1C430.5,250.7,415.6,263.6,395.1,264.1z"/>
			</g>
			<g>
				<g>
					<g>
						<path class="st0" d="M212.3,104.9c0.8,5.3-12.4,8.8-17.8,8.4c-4.5-0.4-2.4-7.6-2.7-12.2c-0.3-6.1-6.1-20.4-9-28.7
							c-2.3-6.7,5.7-7.1,7.7-5.7c0,0,0,0,0,0c3.2,2.4,6.4,14.3,9.3,22.7C202.7,97.7,211.6,99.6,212.3,104.9z"/>
					</g>
				</g>
				<g>
					<path class="st0" d="M243.1,333.7c-16.5,0-32.1-3.9-46.6-11.7c-44.1-23.7-42.2-82.4-36.9-124.5l1.4-11.6c3.2-25.7,4-35,5.1-50
						c0.8-10.6,8.2-32.8,30.7-40.4c5.3-1.8,10.6-2.7,15.7-2.7c10.1,0,19.9,3.6,28.2,10.4c2,1.6,3.9,3.4,5.8,5.4
						c1.9,2.1,3.5,3.9,5.1,5.7c7.7,8.6,13.9,15.4,38.8,38.7c26.7,24.8,68.1,73.7,46.4,121.6c-15.3,33.6-44.7,49-60.2,53
						C272.4,329.4,260.3,333.7,243.1,333.7z"/>
					<path class="st0" d="M212.5,100.9c9.4,0,17.2,3.7,23.1,8.6c1.8,1.5,3.4,3,4.9,4.6c11.3,12.4,14.2,16.7,44.4,44.8
						c28.7,26.8,63.3,71.2,44.5,112.5c-14.8,32.6-43.6,45.8-55.5,48.7c-5.8,2.6-17,5.7-30.9,5.7c-12.7,0-27.7-2.6-42.8-10.8
						c-40-21.5-37.7-77.4-32.8-116.4c0.5-4.2,1-8.1,1.4-11.7c3.2-26.2,4.1-35.6,5.1-50.4c0.4-5.9,4.9-26.5,25.3-33.4
						C204,101.6,208.4,100.9,212.5,100.9 M212.5,84.9v16V84.9C212.5,84.9,212.5,84.9,212.5,84.9c-6,0-12.1,1-18.3,3.1
						c-12.5,4.2-22.5,12.7-29,24.5c-5.8,10.6-6.9,20.2-7.1,22.9c-1.1,14.8-1.9,24-5.1,49.6c-0.3,2.5-0.6,5.3-1,8.1l-0.4,3.5
						c-2.2,17.9-4.7,44.6-0.3,69.5c5.3,29.8,19.2,51,41.4,63c15.6,8.4,32.6,12.7,50.4,12.7c17.9,0,30.9-4.4,36-6.5
						c5.6-1.5,17.5-5.6,31-15.5c14.9-10.9,26.3-25,33.9-41.8c5.6-12.4,7.7-25.6,6.3-39.5c-1.2-11.7-4.9-23.8-11.1-36
						c-11.6-23.1-30-42.8-43.4-55.3c-24.7-23-30.7-29.7-38.4-38.2c-1.6-1.8-3.3-3.6-5.2-5.7c-2.2-2.4-4.3-4.4-6.7-6.3
						C235.9,89.1,224.5,84.9,212.5,84.9L212.5,84.9z"/>
				</g>
				<path class="st0" d="M329.5,271.3c-14.8,32.6-43.6,45.8-55.5,48.7c-11.2,4.9-42.2,11.9-73.7-5.1c-40-21.5-37.7-77.4-32.8-116.4
					c0.5-4.2,1-8.1,1.4-11.7c3.2-26.2,4.1-35.6,5.1-50.4c0.4-5.9,4.9-26.5,25.3-33.4c15.5-5.2,27.8-0.7,36.3,6.3
					c1.8,1.5,3.4,3,4.9,4.6c11.3,12.4,14.2,16.7,44.4,44.8C313.7,185.6,348.2,230,329.5,271.3z"/>
				<path class="st0" d="M313,268.5c-11.1,27.3-33.7,37.9-43.1,40.1c-8.8,4-33.2,9.2-58.6-5.8c-32.2-19-31.5-66.4-28.4-99.3
					c0.3-3.6,0.6-6.8,0.9-9.9c2-22.1,2.5-30.1,3.1-42.6c0.2-5,3.4-22.3,19.4-27.8c12.2-4.1,22,0,28.9,6.1c1.5,1.3,2.8,2.6,4,4
					c9.3,10.8,11.6,14.4,36.2,38.9C298.7,195.6,327,233.9,313,268.5z"/>
				<g>
					<path class="st0" d="M283.4,223.7c8.5,22.4-0.5,46.5-20,53.8c-19.5,7.4-42.1-4.8-50.6-27.1c-10.1-26.7-5.5-62.3,14-69.6
						c7-2.6,14.9-1.3,22.7,2.7C263.4,190.7,276.9,206.6,283.4,223.7z"/>
					<path class="st0" d="M220.2,191.5c-5.7,9.3-7.6,32.5-1.3,50.7c6.4,18.2,20.6,20.3,32.5,17.3c11.8-3,18.9-26.2,11.8-42.6
						C251.9,191.1,231.9,172.5,220.2,191.5z"/>
				</g>
				<path class="st1" d="M226.5,201.2c-7.2,7.2-7.1,27.2-0.6,34.9c6.4,7.5,7.9-2.8,9-9c0.8-4.5,3.2-36.2-8.1-26.2
					C226.7,201,226.6,201.1,226.5,201.2z"/>
				<path class="st0" d="M266.8,289.4c-55.6,10-97.2-36.7-101.9-50c0.6,30.4,8.2,60.9,35.4,75.6c31.5,16.9,62.4,10,73.7,5.1
					c11.9-2.9,40.7-16.1,55.5-48.7c6.6-14.6,6.6-29.6,2.5-44.1C318.9,272,310.8,281.5,266.8,289.4z"/>
			</g>
			<g>
				<g>
					<path class="st0" d="M218.6,369.5h14.9c3.2,4.4,6.5,10.5,10.3,10.5c3.9,0,6.3-3,11-7.5c0,0,14.1,4.7,19.5,2.1l-2.2-22.9
						l-53.6-5V369.5z"/>
				</g>
				<g>
					<g>
						<path class="st0" d="M295.9,376.8c-19,0-33.5-3.4-34.1-3.6c-2.6-0.6-4.7-2.5-5.6-5c-0.7-1.9-0.6-4,0.1-5.9
							c-3.8,4.2-5.9,7-6,7.1c-1.5,2-3.9,3.2-6.4,3.2c-0.8,0-1.7-0.1-2.5-0.4c-3.1-1-5.3-3.9-5.5-7.1c-0.3-0.5-0.6-1.2-1-2
							c-0.1,0.4-0.3,0.7-0.4,1.1c-1,2.1-3,3.7-5.3,4.3c-0.7,0.2-6.7,1.6-15.2,1.6c-11,0-26.7-2.4-39.4-13.9
							c-19.6-17.7-44.9-50.9-45.9-52.3c-2.3-3-2.2-7.1,0.2-10c1.3-1.5,13.4-14.8,49.2-17c1.3-0.1,2.7-0.1,4-0.1
							c24.7,0,51.3,14.1,63.6,38.2c6.4-11.2,15.9-20.6,28.3-27.9c17.7-10.5,41.1-16.3,65.9-16.3c9.4,0,18.6,0.8,27.6,2.4
							c52.6,9.5,65.2,19.2,67.2,21.1c1.7,1.6,2.7,3.9,2.6,6.3s-1.3,4.6-3.2,6c-2,1.5-48.6,36.7-82.9,57.2
							C336.4,372.3,317.8,376.8,295.9,376.8z"/>
						<path class="st0" d="M339.7,278.6c8.9,0,17.8,0.8,26.2,2.3c53,9.6,63.2,19.1,63.2,19.1s-47.9,36.2-82.2,56.7
							c-16,9.6-35.1,12.1-51,12.1c-18.2,0-32.2-3.4-32.2-3.4C296,321,347.9,309,347.9,309c-2.1-0.2-4.1-0.2-6.1-0.2
							c-55.6,0-97.8,55.7-97.8,55.7c0-0.4,0-0.9,0-1.3c-0.9-2.4-24-49.4-61.8-52.4c0,0,29.1,13.9,45.1,49.8c0,0-5.5,1.4-13.3,1.4
							c-9.8,0-23.3-2.1-34-11.8c-19.2-17.4-44.9-51.2-44.9-51.2s10.1-12.1,43.6-14.1c1.2-0.1,2.3-0.1,3.5-0.1
							c29.7,0,61.7,22.3,62.5,58.3C250.4,297.6,296,278.6,339.7,278.6 M339.7,262.6c-26.1,0-51,6.2-69.9,17.4
							c-9.5,5.6-17.5,12.4-23.9,20.3c-3.3-4.4-7.1-8.4-11.4-12.1c-14.5-12.4-33.6-19.5-52.5-19.5c-1.5,0-3,0-4.5,0.1
							c-38.4,2.3-52.4,16.9-54.9,19.9c-4.8,5.7-5,14-0.5,19.9c1.1,1.4,26.8,35.2,47,53.4c11.6,10.4,27,15.9,44.8,15.9
							c9.5,0,16.4-1.6,17.1-1.8c0.5-0.1,0.9-0.3,1.4-0.4c1.8,1.8,3.9,3.2,6.4,4c1.6,0.5,3.3,0.8,5,0.8c3.3,0,6.6-1,9.3-3
							c1.9,1.6,4.2,2.8,6.7,3.4c0.6,0.2,16,3.8,35.9,3.8c23.4,0,43.3-4.8,59.2-14.4c34.6-20.7,81.6-56.2,83.6-57.7
							c3.8-2.9,6.1-7.2,6.3-12c0.2-4.7-1.6-9.3-5.1-12.5c-4.1-3.8-19.3-13.6-71.2-23.1C359.3,263.4,349.6,262.6,339.7,262.6
							L339.7,262.6z"/>
					</g>
				</g>
				<g>
					<path class="st0" d="M178.5,284.8c30.6-1.8,65.1,20.8,66,58.2c7-54.6,71.7-71,121.3-62.1c53,9.6,63.2,19.1,63.2,19.1
						s-47.9,36.2-82.2,56.7c-34.3,20.5-86.3,8.8-86.3,8.8c32.3-44.4,87.3-56.4,87.3-56.4c-58.6-4.4-104,57-104,57c0-0.4,0,0.7,0,0.2
						c-0.9-2.4-21-48.2-61.8-55.5c0,0,30.6,13.9,46.6,49.8c0,0-29.7,6.9-48.9-10.5c-19.2-17.4-44.9-51.2-44.9-51.2
						S145.1,286.8,178.5,284.8z"/>
				</g>
				<g>
					<path class="st0" d="M375.5,330.1c-24.1,16.2-50.4,29.7-80.3,27.7c-1.4-0.1-2.5-1.3-2.1-2.8c5.8-22.3,24.2-32.7,43-42.6
						c-18,6.1-52.5,21.3-75.5,52.9c0,0,52.1,11.8,86.3-8.8c34.3-20.5,82.2-56.7,82.2-56.7s-0.3-0.3-1.2-0.9
						C408.9,305.4,391.1,319.6,375.5,330.1z"/>
					<path class="st0" d="M183.4,311.4c-0.5-0.2-1-0.4-1.5-0.7c9.6,8.6,18.3,19.1,27.8,35.9c0,0-8.1,2.4-21.3-3.3
						c-14.8-6.5-17.2-9.2-31.4-17.3c7.4,8.5,15.6,17.4,22.8,24c19.2,17.4,48.9,10.5,48.9,10.5C214.7,328.9,189.2,314.3,183.4,311.4z
						"/>
				</g>
			</g>
			<g>
				<path class="st0" d="M294.5,120.6c-1.5,0-2.9-0.4-4.2-1.2c-24.2-15-38.7-41.7-36-66.3c2.8-25.4,18.7-35.6,19.4-36
					c1.3-0.8,2.8-1.2,4.2-1.2c1.4,0,2.7,0.3,3.9,1c1.1,0.6,27.3,15.8,32.6,51.1c5.2,35.1-14.2,50.3-15.1,50.9
					C298,120.1,296.3,120.6,294.5,120.6z"/>
				<path class="st0" d="M278,24c0,0,23.9,13.5,28.6,45.3c4.6,30.8-12,43.4-12,43.4C272.3,98.8,260,75,262.3,54.1
					C264.7,32.3,278,24,278,24 M278,8c-2.9,0-5.9,0.8-8.5,2.4c-2,1.3-19.9,13.2-23.1,41.9c-1.5,13.7,1.5,28,8.7,41.3
					c7.1,13.2,17.8,24.5,31,32.6c2.6,1.6,5.5,2.4,8.4,2.4c3.4,0,6.8-1.1,9.7-3.3c1.2-0.9,7.3-5.9,12.3-15.6
					c4.3-8.5,8.8-22.8,5.9-42.9c-5.8-39.1-35.3-56.1-36.5-56.9C283.4,8.7,280.7,8,278,8L278,8z"/>
			</g>
			<path class="st2" d="M294.5,112.7C272.3,98.8,260,75,262.3,54.1C264.7,32.3,278,24,278,24s23.9,13.5,28.6,45.3
				C311.1,100.1,294.5,112.7,294.5,112.7z"/>
			<path class="st0" d="M306.6,69.3c-2.4-15.8-9.5-27.1-16-34.5c0.2,0.5,0.3,1.1,0.6,1.6c5.2,8.7,13.1,35.8,3.5,56.9
				c-1.3,2.8-5.5-12.9-6.4-10.8c-1.4,3.6-0.3,13.2-1.3,13.2c-7.1-0.4-16.2-8.9-20.4-15.1c5.2,12.4,14.9,24,28,32.2
				C294.5,112.7,311.1,100.1,306.6,69.3z"/>
			<path class="st0" d="M295.3,116.2c-3.5-4.2-7.7-14.5-10.7-31.6c-1.2-7-2.7-17.2-3.3-23.7c-0.4-3.9,0.5-5.3,2.1-1.5
				c2.5,5.8,5.1,16.5,8.8,26.3c5.3,14,5.5,29.8,5.5,29.8L295.3,116.2z"/>
		</g>
		<g>
			<g>
				<g>
					<g>
						<g>
							<g>
								<g>
									<g>
										<g>
											<path class="st3" d="M375,48.6c5.3,1.7,26.3,13.7,31.1,15.4c-4.8,10.8-6.9,19.3-16.5,32.3c13-12.3,16.7-18.9,23.3-30
												c3.1,1,8.4,2.8,11.5,3.9c-15.1,21.3-40,49.7-44,49.7c-0.1,0-0.2,0-0.2,0c-2-0.9-3.6-3.2-4.3-6c-1,0.5-2.1,0.7-3.3,0.7
												c-3.8,0-8.1-2.3-9.2-4.6C362.7,108.5,376.7,69.2,375,48.6 M375,40.2c-1.9,0-3.7,0.6-5.2,1.8c-2.2,1.7-3.4,4.5-3.1,7.3
												c1.2,13.7-5.9,38.5-9.3,50.4c-0.7,2.4-1.2,4.2-1.6,5.7c-0.6,2.3-1.3,5,0,8c2.6,5.6,9.4,8.9,15.2,9.4
												c1.6,2.1,3.6,3.8,5.9,4.7c1.1,0.5,2.3,0.7,3.5,0.7c4,0,7.4-2.5,12.2-7.1c3.2-3.1,7.3-7.4,11.9-12.6
												c9.4-10.6,19.4-23.2,26.7-33.5c1.5-2.2,2-4.9,1.1-7.5c-0.8-2.5-2.8-4.5-5.3-5.4l-3.8-1.3c-2.7-0.9-5.7-1.9-7.7-2.6
												c-0.9-0.3-1.8-0.4-2.7-0.4c-0.3,0-0.6,0-0.9,0.1c-0.9-0.9-2-1.5-3.1-1.9c-1.7-0.6-8.6-4.2-13.2-6.6
												c-9.1-4.8-14.8-7.7-18-8.8C376.7,40.3,375.8,40.2,375,40.2L375,40.2z"/>
										</g>
										<path class="st4" d="M412.8,66.2c-6.6,11.2-10.3,17.8-23.3,30c9.6-13,11.7-21.5,16.5-32.3c-4.8-1.6-25.8-13.7-31.1-15.4
											c1.8,20.7-12.2,60-11.6,61.3c1.4,3,8.4,6,12.5,3.8c0.7,2.8,2.2,5.2,4.3,6c3.1,1.3,28.8-27.8,44.3-49.6
											C421.3,69,415.9,67.3,412.8,66.2z"/>
										<path class="st5" d="M412.8,66.2c-6.6,11.2-10.3,17.8-23.3,30c9.6-13,11.7-21.5,16.5-32.3c-0.9-0.3-2.4-1-4.2-1.9
											c-0.3,0.5-0.7,0.9-1.1,1.4c-2.3,9.9-4.3,19.3-16,24.3c-5.2,2.2-10.7,2.9-16.2,2.3c-2.9,10.9-5.6,19.2-5.3,19.8
											c1.4,3,8.4,6,12.5,3.8c0.7,2.8,2.2,5.2,4.3,6c3.1,1.3,28.8-27.8,44.3-49.6C421.3,69,415.9,67.3,412.8,66.2z"/>
										<g>
											<path class="st6" d="M355.9,196c-4,8-9.8,14.8-15.7,23.2c-5.4,7.7-10.9,17.3-17.4,25c-11.8,14-23.2,26.4-34.4,36.6
												c-3.5,3.2-20.7,15.6-21.5,0.9c-0.3-5.4,2.8-10.7,4.8-15c3.3-7.2,7.2-14.4,10.4-22.1c3.2-7.6,5.7-15.8,8.7-23.6
												c3.2-8.4,7.8-16,11.3-23.9c6.4-14.6,12.7-28.1,18.2-43.3c2.8-7.6,7.9-13.6,11.3-21.2c3-6.7,3.7-14.8,8.5-20.6
												c8.6-10.5,27.9-12.5,39.8-6.1c8.3,4.5,12.1,13,13.2,22.1c1,8.8-3.3,14.4-8.2,21.2c-6,8.2-9.5,18.8-14.9,27.4
												C365.2,183.9,359.3,189.2,355.9,196z"/>
											<g>
												<path class="st3" d="M364.1,102.1c5.6,0,11.2,1.2,15.7,3.6c8.4,4.5,12.2,13,13.2,22.1c1.1,8.8-3.3,14.4-8.2,21.2
													c-6.1,8.2-9.5,18.9-14.9,27.4c-4.7,7.5-10.6,12.8-14,19.6c-4,8-9.7,14.8-15.7,23.2c-0.8,1.1-1.6,2.3-2.4,3.5
													c-1,1.6-2.1,3.2-3.2,4.8c-3.7,5.6-7.5,11.5-11.8,16.7c-6.2,7.4-12.3,14.4-18.4,20.8c-0.7,0.8-1.4,1.5-2.1,2.2
													c-4.7,4.9-9.3,9.5-13.9,13.7c-2.3,2.1-10.2,7.9-15.7,7.9c-3.1,0-5.5-1.8-5.8-7c-0.3-5.4,2.8-10.7,4.8-15
													c3.3-7.2,7.2-14.4,10.4-22.1c0.8-2,1.6-4,2.4-6c0.2-0.5,0.4-1,0.5-1.5c1.9-5.4,3.7-10.8,5.8-16.2
													c3.2-8.4,7.8-16.1,11.3-23.9c3-6.8,6-13.4,8.8-20c0.7-1.4,1.3-2.9,1.9-4.4c2.6-6.1,5.1-12.4,7.5-19
													c2.8-7.6,7.9-13.6,11.3-21.3c3-6.7,3.7-14.8,8.5-20.6C345.4,105.3,354.9,102.1,364.1,102.1 M364.1,93.7v8.4V93.7
													C364.1,93.7,364.1,93.7,364.1,93.7c-12.5,0-24,4.8-30.6,12.8c-4.1,5-5.9,10.8-7.4,15.8c-0.7,2.4-1.4,4.7-2.3,6.7
													c-1.3,2.9-3,5.7-4.8,8.7c-2.4,4-4.9,8.2-6.7,13.2c-2.1,5.8-4.5,11.7-7.4,18.6l-0.5,1.1c-0.4,1.1-0.9,2-1.3,3
													c0,0.1-0.1,0.1-0.1,0.2c-1.8,4.2-3.6,8.4-5.6,12.7c-1.1,2.4-2.1,4.8-3.2,7.2c-1.3,3-2.9,6.1-4.5,9.3
													c-2.4,4.7-4.9,9.7-7,15c-1.3,3.4-2.5,6.8-3.7,10.2c-0.7,2-1.4,4.1-2.1,6c-0.2,0.5-0.4,1-0.6,1.6
													c-0.7,1.8-1.4,3.7-2.2,5.7c-1.9,4.5-4.1,9-6.2,13.3c-1.3,2.8-2.7,5.6-4.1,8.4c-0.3,0.6-0.6,1.3-0.9,1.9
													c-2.1,4.3-5,10.3-4.6,17c0.6,11.1,8,15,14.1,15c10.1,0,20.9-9.7,21.4-10.1c4.6-4.2,9.4-8.9,14.3-14.1
													c0.5-0.5,0.9-0.9,1.4-1.4c0.3-0.3,0.5-0.5,0.8-0.8c0,0,0,0,0-0.1c5.9-6.2,12-13.1,18.7-21.1c4.7-5.6,8.8-11.9,12.4-17.5
													c1.1-1.7,2.3-3.4,3.1-4.7c0,0,0-0.1,0.1-0.1c0.7-1.1,1.5-2.3,2.3-3.3c1.5-2.2,3.1-4.3,4.7-6.4
													c4.3-5.8,8.4-11.4,11.6-17.8c1.5-2.9,3.7-5.7,6.3-8.9c2.3-2.9,4.9-6.1,7.3-9.9c2.6-4.1,4.7-8.6,6.8-12.8
													c2.5-5.2,4.8-10.1,7.8-14.1l0.4-0.5c5.1-6.9,10.8-14.7,9.4-26.6c-1.6-13.3-7.7-23.2-17.6-28.5
													C378.1,95.3,371.4,93.7,364.1,93.7L364.1,93.7z"/>
											</g>
											<path class="st6" d="M386.9,146.1c-0.7,0.9-1.4,1.9-2.1,2.9c-1.1,1.5-2.1,3.1-3.1,4.8c-4.3,7.3-7.4,15.7-11.8,22.7
												c-4.7,7.5-10.6,12.8-14,19.6c-0.6,1.2-1.2,2.3-1.9,3.5c-1.5,2.6-3.2,5.1-5,7.6c-2.7,3.9-5.7,7.7-8.8,12
												c-0.8,1.1-1.6,2.3-2.4,3.5c-1,1.5-2.1,3.2-3.2,4.8c-3.7,5.6-7.5,11.5-11.8,16.7c-6.2,7.4-12.4,14.4-18.4,20.8
												c-0.7,0.7-1.4,1.5-2.1,2.2c-4.7,4.9-9.3,9.5-13.9,13.6c-3.5,3.2-20.7,15.6-21.5,0.9c-0.3-5.5,2.8-10.7,4.8-15
												c3.3-7.2,7.2-14.4,10.4-22.1c0.8-2,1.6-4,2.4-6c0.2-0.5,0.4-1,0.5-1.5c1.9-5.3,3.7-10.8,5.8-16.2
												c3.2-8.4,7.8-16,11.3-23.9c3-6.8,6-13.4,8.8-20c0.7-1.4,1.3-2.9,1.9-4.4c2.1-5,4.2-10.1,6.2-15.3
												c0.5-1.2,0.9-2.4,1.4-3.6c0.7-1.9,1.6-3.8,2.5-5.6c2.8-5.2,6.2-10,8.7-15.7c3-6.7,3.7-14.8,8.5-20.6
												c8.6-10.5,27.9-12.5,39.8-6.1c8.4,4.5,12.2,13,13.2,22.1C393.9,135.3,390.9,140.5,386.9,146.1z"/>
											<path class="st7" d="M391.7,121.2c-0.3,0.9-0.6,1.6-0.9,2.2c-2.8,6.2-5.2,12.4-8,18.6c-5.3,11.6-13.4,23.5-23.4,31.5
												c-10.2,8.1-25.5,12.8-38,7.4c-3.7-1.6-6.7-3.9-9.3-6.6c-0.4,0.9-0.8,1.8-1.2,2.7c-2.8,6.6-5.8,13.2-8.8,20
												c-3.5,7.9-8.1,15.5-11.3,23.9c-2.1,5.3-3.8,10.8-5.8,16.2c-0.2,0.5-0.4,1-0.5,1.5c-0.8,2-1.6,4-2.4,6
												c-3.2,7.7-7.1,14.9-10.4,22.1c-2,4.3-5.1,9.5-4.8,15c0.8,14.7,18,2.3,21.5-0.9c4.6-4.2,9.2-8.7,13.9-13.6
												c0.7-0.7,1.4-1.5,2.1-2.2c6-6.4,12.2-13.3,18.4-20.8c4.3-5.1,8.2-11,11.8-16.7c1.1-1.6,2.2-3.3,3.2-4.8
												c0.8-1.2,1.6-2.4,2.4-3.5c3-4.3,6-8.2,8.8-12c1.8-2.5,3.5-5,5-7.6c0.7-1.1,1.3-2.3,1.9-3.5c3.4-6.7,9.3-12,14-19.6
												c4.4-7,7.5-15.4,11.8-22.7c1-1.7,2-3.3,3.1-4.8c0.7-1,1.4-1.9,2.1-2.9c4-5.6,7.1-10.8,6.1-18.3
												C392.8,125.5,392.3,123.3,391.7,121.2z"/>
											<path class="st8" d="M381.7,153.8c-1.1-0.5-2.2-1.1-3.2-1.7c-10-6.4-13.8-14.5-13.8-14.5c7.3,1.9,11.3,2.6,18.9,6.7
												c1.2,0.6,2.2,1.3,3.3,1.9L381.7,153.8z"/>
											<path class="st8" d="M345.7,164.5c-0.9,0-13.3-0.9-26.8-7.2c0.5-1.2,0.9-2.4,1.4-3.6c0.7-1.9,1.6-3.8,2.5-5.6
												c0.3,0.1,0.6,0.2,1,0.4C331.5,151.4,337.4,157.3,345.7,164.5z"/>
											<path class="st8" d="M354,199.4c-1.5,2.6-3.2,5.1-5,7.6c-7.2-4.6-12.6-10-18.5-16.1C330.5,191,339.4,191,354,199.4z"/>
											<g>
												<path class="st3" d="M288.9,221.7c-1,2.9-2.2,5.7-3.4,8.6c11,5.9,25.3,13.3,25.3,13.3S301.4,231,288.9,221.7z"/>
											</g>
										</g>
									</g>
								</g>
							</g>
						</g>
					</g>
					<g>
						<path class="st3" d="M403.4,56.1c0,0-3.2,21.8-13.9,40.2c0,0,16.5-10,28.3-33.7L403.4,56.1z"/>
					</g>
				</g>
				<g>
					<g>
						<path class="st3" d="M158.2,213.1c0,0-0.1,3,1.1,9.9c0.8,4.7,0.9,15.2,8.1,21.5c4.4,3.8,14.4,11,21.6,16
							c-4.6,8.6-10.3,16.6-17.4,23.8c-6.1-5.2-13.9-11.6-18.8-14.4c-7.9-4.4-14.4-5.7-20.1-5.7c-0.9,0-1.8,0-2.6,0.1
							c-6.2,0.4-21.1,3.9-21.1,3.9l2.5-8.8c0,0,15.2-2.7,22.3-2.7c0.3,0,0.7,0,1,0c0.1,0,0.1,0,0.2,0c6,0-18-15.6-18-15.6l3.6-9.4
							c0,0,13.7,12.1,17.3,12.1c0.3,0,0.5-0.1,0.7-0.2c2.2-2.1-8.2-12.7-8.2-12.7l6.9-8.5c0,0,6.6,13,12.8,14.4
							c0.5,0.1,0.9,0.2,1.3,0.2c4.5,0,1.9-7,0.4-12.9c-1.7-6.4-3.6-10.2-3.6-10.2L158.2,213.1 M158.2,204.8c-0.3,0-0.5,0-0.8,0
							l-10.2,0.9c-2.8,0.2-5.3,1.8-6.6,4.3c-0.8,1.4-1.2,3-1,4.6c-0.5-0.2-1-0.3-1.6-0.3c-0.3,0-0.6,0-0.9,0c-2.5,0-4.9,1.1-6.5,3.1
							l-6,7.4c-1.3-0.7-2.7-1.1-4.2-1.1c-0.7,0-1.4,0.1-2,0.2c-2.7,0.7-4.8,2.6-5.8,5.2l-3.6,9.4c-1.4,3.7,0,7.9,3.3,10
							c1,0.6,2,1.3,3.1,2c-2.8,0.4-4.9,0.8-5.4,0.9c-3.2,0.6-5.7,2.9-6.6,6l-2.5,8.8c-0.8,2.9,0,5.9,2,8.1c1.6,1.7,3.8,2.6,6.1,2.6
							c0.6,0,1.3-0.1,1.9-0.2c3.9-0.9,15.2-3.4,19.7-3.7c0.7,0,1.4-0.1,2.1-0.1c5.3,0,10.4,1.5,16.1,4.6c2,1.1,6.9,4.3,17.4,13.4
							c1.6,1.4,3.5,2,5.5,2c2.2,0,4.4-0.9,6-2.5c7.4-7.6,13.7-16.2,18.8-25.7c2-3.7,0.9-8.4-2.6-10.8c-10.3-7.2-17.8-12.7-21-15.5
							c-3.7-3.2-4.4-9.2-4.9-13.6c-0.1-1.1-0.3-2.1-0.4-3c-0.9-5.3-1-7.9-1-8.3c0.1-2.4-0.8-4.6-2.5-6.3
							C162.5,205.5,160.4,204.8,158.2,204.8L158.2,204.8z M158.2,221.5L158.2,221.5L158.2,221.5L158.2,221.5z"/>
					</g>
					<path class="st9" d="M152.8,270.1c4.9,2.7,12.7,9.1,18.8,14.4c7.1-7.2,12.8-15.2,17.4-23.8c-7.2-5-17.3-12.2-21.6-16
						c-7.2-6.3-7.3-16.8-8.1-21.5c-1.2-6.9-1.1-9.9-1.1-9.9L148,214c0,0,1.9,3.8,3.6,10.2c1.7,6.4,4.6,14.1-1.6,12.8
						c-6.2-1.3-12.8-14.4-12.8-14.4l-6.9,8.5c0,0,10.4,10.6,8.2,12.7c-2.2,2.1-18-11.8-18-11.8l-3.6,9.4c0,0,24.4,15.8,17.8,15.6
						c-6.6-0.3-23.3,2.7-23.3,2.7l-2.5,8.8c0,0,14.9-3.5,21.1-3.9C136.3,264.1,143.7,265,152.8,270.1z"/>
					<g>
						<path class="st3" d="M121.5,176.9c8.6,0,15.4,7.5,15.4,7.5c2.3-4.4,5.9-6.2,9.6-6.2c3.5,0,7.2,1.6,10.1,4.2
							c7.3,6.7,8.5,19.1,2.5,27.1c-3.8,5.1-10.3,8-16.6,8c-3.5,0-7-0.9-10.1-2.7c-1.1,7.6-5.5,14.8-12.2,18.5
							c-1.8,1-3.7,1.7-5.7,2.1c0.1,0.1,0.1,0.2,0.2,0.2c3.3,4.6,3.2,11.3,0.6,16.4c-2.9,5.4-7.2,9.6-13.1,9.6c-0.4,0-0.9,0-1.4-0.1
							c1.6,3.3-0.3,10-2.4,12.5c-2.5,2.8-8.1,4.3-12.6,4.3c-1.4,0-2.6-0.1-3.7-0.4c-4.7-1.2-8.7-3.9-11.7-7.7
							c-3.7-4.6-6.5-10-5.9-15.9c0.6-5.9,4.1-12.9,10-13.7c-7-5-6.5-13.8-3.6-19.2c1.3-2.5,3.4-4.1,5.8-5
							c-1.9-5.5-1.8-11.6,0.3-16.4c3.4-8,11-14.6,19.6-14.6c3.3,0,6.7,1,10.1,3.2c1.3-3.9,3.9-7.8,8.1-10
							C117,177.4,119.3,176.9,121.5,176.9 M121.5,168.5C121.5,168.5,121.5,168.5,121.5,168.5c-3.8,0-7.4,0.9-10.8,2.7
							c-3.1,1.6-5.7,3.9-7.9,6.7c-2.1-0.5-4.2-0.8-6.4-0.8c-11.2,0-22.2,7.9-27.3,19.7c-2.1,4.8-2.8,10.4-2.1,15.9
							c-1.5,1.4-2.7,3-3.7,4.8c-3.4,6.2-4.2,14.3-1.2,21.2c-3.5,4.1-5.6,9.7-6.1,14.8c-0.8,7.3,1.8,14.8,7.7,22.1
							c4.3,5.3,9.8,8.9,16.2,10.5c1.7,0.4,3.7,0.7,5.8,0.7c5.8,0,14.2-1.9,18.9-7.2c2.1-2.4,4-6.5,4.8-10.9c5.3-2,9.9-6.4,13.2-12.7
							c2.6-5,3.5-10.7,2.6-15.9c5.6-3.4,10-8.5,12.7-14.5c1.5,0.2,3,0.3,4.5,0.3c9.3,0,18.1-4.2,23.4-11.3
							c8.5-11.4,6.9-28.6-3.6-38.3c-4.4-4.1-10.2-6.4-15.7-6.4c-3.9,0-7.5,1.1-10.5,3.2C132.3,170.6,127.3,168.5,121.5,168.5
							L121.5,168.5z"/>
					</g>
					<path class="st10" d="M136.9,184.4c0,0-10.7-11.8-22.4-5.7c-4.2,2.2-6.8,6.1-8.1,10c-12.4-8-24.9,0.4-29.7,11.4
						c-2.1,4.8-2.2,11-0.3,16.4c-2.4,0.9-4.4,2.5-5.8,5c-2.9,5.4-3.5,14.2,3.6,19.2c-5.9,0.8-9.3,7.8-10,13.7
						c-0.6,5.9,2.2,11.3,5.9,15.9c3.1,3.8,7,6.5,11.7,7.7c4.7,1.2,13.1-0.3,16.4-3.9c2.2-2.5,4-9.2,2.4-12.5
						c6.5,0.7,11.4-3.7,14.4-9.5c2.7-5,2.8-11.8-0.6-16.4c-0.1-0.1-0.1-0.2-0.2-0.2c2-0.4,3.9-1.1,5.7-2.1
						c6.7-3.7,11.2-10.9,12.2-18.5c8.5,5.1,20.8,2.7,26.7-5.3c5.9-8,4.8-20.4-2.5-27.1C150.8,177.1,141.3,175.9,136.9,184.4z"/>
					<path class="st5" d="M95.7,234.1c3.4,9.4,2.4,18.7-3,25.3c-5.8,7.1-24.1,6-28.4-3.2c0.1,5.2,2.7,9.9,6,14
						c3.1,3.8,7,6.5,11.7,7.7c4.7,1.2,13.1-0.3,16.4-3.9c2.2-2.5,4-9.2,2.4-12.5c6.5,0.7,11.4-3.7,14.4-9.5
						c2.1-3.9,2.6-8.9,1.1-13.1C109.2,238.9,102.1,237.5,95.7,234.1z"/>
					<path class="st3" d="M114.5,235.4c-2.7,0.4-10.8,2.2-17.9-0.7c0,0,8.2,12.2,20.3,9.6c12.1-2.6,12.5-11.4,12.5-11.4
						S117.4,235,114.5,235.4z"/>
					<path class="st3" d="M106.5,188.6c0,0,8.3,5,10.7,9.7c0,0-0.4-14.7-12.1-20.5L106.5,188.6z"/>
					<path class="st3" d="M67.1,266.5c0,0-4.5-11.8,2.2-18.2c3.7-3.5,8.8-4.5,13.9-3.1c0,0-3.8-6.9-11.1-7c-9.9,0-12.8,9.8-12.8,9.8
						L67.1,266.5z"/>
					<path class="st3" d="M132.4,214.8c0.3-4.8-1.1-11.5-2.9-16.4c0,0,12.9,3.9,12.3,22.4L132.4,214.8z"/>
					<path class="st3" d="M76.5,216.5c0,0,3.3,8,8.5,9.2c0,0-15.4,3.8-18.5-9.5L76.5,216.5z"/>
				</g>
				<g>
					<path class="st11" d="M437.3,191.3c10.1,41.3,0.3,79.6-56.6,97.6c-57.8,18.3-86.7-6.4-102.7-45.5c-0.8-1.9-0.3-6.6,1.5-7.2
						c43-13.9,112.7-36.4,152.1-49.1C433.3,186.7,436.8,189.5,437.3,191.3z"/>
					<g>
						<path class="st3" d="M432,187.2c1.8,0,4.8,2.5,5.2,4.2c10.1,41.3,0.3,79.6-56.6,97.6c-13.3,4.2-25.1,6.2-35.6,6.2
							c-34.9,0-54.9-21.6-67.1-51.6c-0.8-1.9-0.3-6.6,1.5-7.2c43-13.9,112.7-36.4,152.1-49.1C431.7,187.2,431.9,187.2,432,187.2
							 M432,178.8C432,178.8,432,178.8,432,178.8c-1,0-2.1,0.2-3,0.5l-152.1,49.1c-2.7,0.9-4.9,2.9-6.2,5.7c-1.7,3.7-1.9,9-0.5,12.6
							c7.2,17.7,16.2,30.9,27.4,40.3c13,11,29,16.5,47.4,16.5c11.6,0,24.4-2.2,38.1-6.5c28.8-9.1,48.5-24.1,58.4-44.4
							c8.5-17.4,9.8-38.7,3.8-63.2C444.1,183.9,437.6,178.8,432,178.8L432,178.8z"/>
					</g>
					<path class="st12" d="M415.6,204.4c7.9,28.1-1.8,56-40.2,68.2c-39.3,12.4-62.5-4.4-72.5-31.8L415.6,204.4z"/>
					<path class="st11" d="M366.9,233.9c4.2,7,10.7,17.8,11,25.3c0.3,7.5-7.9,8.3-10.3,3.4c-3.4-7.1-5-21.9-5.4-27
						C361.8,230.5,363.3,227.9,366.9,233.9z"/>
					<path class="st11" d="M352.4,239.7c1,7.3,2.7,18.7-0.1,25c-2.7,6.3-10.6,3.8-10.8-1.1c-0.3-7.1,4.2-19.9,5.9-24.3
						C349.1,234.9,351.5,233.4,352.4,239.7z"/>
					<path class="st11" d="M339.7,242.3c-3.3,4.9-8.3,12.6-13.4,14.7c-5.1,2.1-8.8-4.1-6.2-7.1c3.7-4.4,13.3-9.2,16.7-10.7
						C340.2,237.6,342.5,238.1,339.7,242.3z"/>
					<path class="st11" d="M374.8,232.5c3.4,6.5,8.8,16.7,14.6,20.2c5.9,3.5,10.8-3.1,8.1-7.2c-4-5.9-15-13.7-18.9-16.3
						S371.9,226.8,374.8,232.5z"/>
					<path class="st11" d="M386.7,227.2c5.5,2.1,14.1,5.4,19.4,4.1c5.3-1.3,4.7-8.5,0.9-9.4c-5.5-1.4-16.2,0.3-19.8,1
						C383.5,223.6,381.9,225.4,386.7,227.2z"/>
					<path class="st13" d="M395.1,263.5c-10.1,0.3-19.9-1.5-28.8-6.4c-26.6-14.7-25.8-35.4-27.9-39.7c-21.4,6.9-42.2,13.6-58.9,19
						c-1.7,0.6-2.3,5.2-1.5,7.2c15.9,39,44.9,63.8,102.7,45.5c35.4-11.2,52.6-30.3,58-53.1C430.6,250,415.6,262.9,395.1,263.5z"/>
				</g>
				<g>
					<g>
						<g>
							<path class="st3" d="M212.3,104.2c0.8,5.3-12.4,8.8-17.8,8.4c-4.5-0.4-2.4-7.6-2.7-12.2c-0.3-6.1-6.1-20.4-9-28.7
								c-2.3-6.7,5.7-7.1,7.7-5.7c0,0,0,0,0,0c3.2,2.4,6.4,14.3,9.3,22.7C202.7,97,211.6,98.9,212.3,104.2z"/>
						</g>
					</g>
					<g>
						<path class="st3" d="M212.5,100.2c9.4,0,17.2,3.7,23.1,8.6c1.8,1.5,3.4,3,4.9,4.6c11.3,12.4,14.2,16.7,44.4,44.8
							c28.7,26.8,63.3,71.2,44.5,112.5c-14.8,32.6-43.6,45.8-55.5,48.7c-5.8,2.6-17,5.7-30.9,5.7c-12.7,0-27.7-2.6-42.8-10.8
							c-40-21.5-37.7-77.4-32.8-116.4c0.5-4.2,1-8.1,1.4-11.7c3.2-26.2,4.1-35.6,5.1-50.4c0.4-5.9,4.9-26.5,25.3-33.4
							C204,100.9,208.4,100.2,212.5,100.2 M212.5,91.8v8.4V91.8C212.5,91.8,212.5,91.8,212.5,91.8c-5.2,0-10.5,0.9-15.8,2.7
							c-22.7,7.7-30.2,30-31,40.7c-1.1,14.9-2,24.2-5.1,50c-0.3,2.6-0.7,5.3-1,8.3l-0.4,3.4c-2.2,17.4-4.6,43.4-0.4,67.3
							c4.9,27.4,17.5,46.8,37.5,57.6c14.5,7.8,30.3,11.8,46.8,11.8c17.2,0,29.3-4.3,33.6-6.1c15.6-4,45.1-19.5,60.5-53.2
							c9.5-20.9,7.9-44.1-4.6-68.9c-11.1-22.1-28.9-41.1-41.8-53.1c-25-23.3-31.1-30.1-38.8-38.7c-1.6-1.8-3.2-3.6-5.1-5.7
							c-1.9-2.1-3.8-3.9-5.8-5.5C232.5,95.4,222.7,91.8,212.5,91.8L212.5,91.8z"/>
					</g>
					<path class="st9" d="M329.5,270.6c-14.8,32.6-43.6,45.8-55.5,48.7c-11.2,4.9-42.2,11.9-73.7-5.1c-40-21.5-37.7-77.4-32.8-116.4
						c0.5-4.2,1-8.1,1.4-11.7c3.2-26.2,4.1-35.6,5.1-50.4c0.4-5.9,4.9-26.5,25.3-33.4c15.5-5.2,27.8-0.7,36.3,6.3
						c1.8,1.5,3.4,3,4.9,4.6c11.3,12.4,14.2,16.7,44.4,44.8C313.7,184.9,348.2,229.3,329.5,270.6z"/>
					<path class="st14" d="M313,267.8c-11.1,27.3-33.7,37.9-43.1,40.1c-8.8,4-33.2,9.2-58.6-5.8c-32.2-19-31.5-66.4-28.4-99.3
						c0.3-3.6,0.6-6.8,0.9-9.9c2-22.1,2.5-30.1,3.1-42.6c0.2-5,3.4-22.3,19.4-27.8c12.2-4.1,22,0,28.9,6.1c1.5,1.3,2.8,2.6,4,4
						c9.3,10.8,11.6,14.4,36.2,38.9C298.7,194.9,327,233.2,313,267.8z"/>
					<g>
						<path class="st15" d="M283.4,223c8.5,22.4-0.5,46.5-20,53.8c-19.5,7.4-42.1-4.8-50.6-27.1c-10.1-26.7-5.5-62.3,14-69.6
							c7-2.6,14.9-1.3,22.7,2.7C263.5,190,276.9,205.9,283.4,223z"/>
						<path class="st16" d="M220.2,190.9c-5.7,9.3-7.6,32.5-1.3,50.7c6.4,18.2,20.6,20.3,32.5,17.3c11.8-3,18.9-26.2,11.8-42.6
							C251.9,190.4,231.9,171.9,220.2,190.9z"/>
					</g>
					<path class="st1" d="M226.5,200.5c-7.2,7.2-7.1,27.2-0.6,34.9c6.4,7.5,7.9-2.8,9-9c0.8-4.5,3.2-36.2-8.1-26.2
						C226.7,200.3,226.6,200.4,226.5,200.5z"/>
					<path class="st17" d="M266.8,288.7c-55.6,10-97.2-36.7-101.9-50c0.6,30.4,8.2,60.9,35.4,75.6c31.5,16.9,62.4,10,73.7,5.1
						c11.9-2.9,40.7-16.1,55.5-48.7c6.6-14.6,6.6-29.6,2.5-44.1C318.9,271.3,310.8,280.8,266.8,288.7z"/>
				</g>
				<g>
					<g>
						<path class="st3" d="M218.6,368.8h14.9c3.2,4.4,6.5,10.5,10.3,10.5c3.9,0,6.3-3,11-7.5c0,0,14.1,4.7,19.5,2.1l-2.2-22.9
							l-53.6-5V368.8z"/>
					</g>
					<g>
						<g>
							<path class="st3" d="M339.7,277.9c8.9,0,17.8,0.8,26.2,2.3c53,9.6,63.2,19.1,63.2,19.1S381.2,335.4,347,356
								c-16,9.6-35.1,12.1-51,12.1c-18.2,0-32.2-3.4-32.2-3.4c32.3-44.4,84.2-56.4,84.2-56.4c-2.1-0.2-4.1-0.2-6.1-0.2
								c-55.6,0-97.8,55.7-97.8,55.7c0-0.4,0-0.9,0-1.3c-0.9-2.4-24-49.4-61.8-52.4c0,0,29.1,13.9,45.1,49.8c0,0-5.5,1.4-13.3,1.4
								c-9.8,0-23.3-2.1-34-11.8c-19.2-17.4-44.9-51.2-44.9-51.2s10.1-12.1,43.6-14.1c1.2-0.1,2.3-0.1,3.5-0.1
								c29.7,0,61.7,22.3,62.5,58.3C250.4,296.9,296,277.9,339.7,277.9 M339.7,269.5c-24.8,0-48.3,5.8-66.1,16.4
								c-12.2,7.2-21.6,16.5-28,27.5c-3.9-7.5-9.3-14.3-16.1-20.1c-13.2-11.2-30.5-17.7-47.5-17.7c-1.3,0-2.7,0-4,0.1
								c-36,2.2-48.2,15.6-49.5,17.1c-2.5,3-2.6,7.3-0.2,10.5c1.1,1.4,26.4,34.7,46,52.3c12.8,11.6,28.6,14,39.7,14
								c8.6,0,14.7-1.4,15.3-1.6c2.4-0.6,4.4-2.2,5.5-4.5c0.1-0.1,0.1-0.2,0.2-0.4c0.2,0.4,0.4,0.8,0.6,1.1c0.2,3.4,2.5,6.4,5.8,7.5
								c0.9,0.3,1.7,0.4,2.6,0.4c2.6,0,5.1-1.2,6.7-3.3c0.1-0.1,1.8-2.3,4.8-5.7c-0.3,1.5-0.2,3,0.4,4.5c1,2.6,3.2,4.6,5.9,5.3
								c0.6,0.1,15.2,3.6,34.2,3.6c22,0,40.6-4.5,55.3-13.3c34.3-20.5,81-55.7,82.9-57.2c2-1.5,3.2-3.8,3.3-6.3
								c0.1-2.5-0.9-4.9-2.7-6.6c-2-1.9-14.7-11.6-67.4-21.2C358.4,270.3,349.1,269.5,339.7,269.5L339.7,269.5z"/>
						</g>
					</g>
					<g>
						<path class="st10" d="M178.6,284.1c30.6-1.8,65.1,20.8,66,58.2c7-54.6,71.7-71,121.3-62.1c53,9.6,63.2,19.1,63.2,19.1
							S381.2,335.4,347,356c-34.3,20.5-86.3,8.8-86.3,8.8c32.3-44.4,87.3-56.4,87.3-56.4c-58.6-4.4-104,57-104,57c0-0.4,0,0.7,0,0.2
							c-0.9-2.4-21-48.2-61.8-55.5c0,0,30.6,13.9,46.6,49.8c0,0-29.7,6.9-48.9-10.5c-19.2-17.4-44.9-51.2-44.9-51.2
							S145.1,286.1,178.6,284.1z"/>
					</g>
					<g>
						<path class="st5" d="M375.5,329.4c-24.1,16.2-50.4,29.7-80.3,27.7c-1.4-0.1-2.5-1.3-2.1-2.8c5.8-22.3,24.2-32.7,43-42.6
							c-18,6.1-52.5,21.3-75.5,52.9c0,0,52.1,11.8,86.3-8.8c34.3-20.5,82.2-56.7,82.2-56.7s-0.3-0.3-1.2-0.9
							C408.9,304.8,391.1,318.9,375.5,329.4z"/>
						<path class="st5" d="M183.4,310.7c-0.5-0.2-1-0.4-1.5-0.7c9.6,8.6,18.3,19.1,27.8,35.9c0,0-8.1,2.4-21.3-3.3
							c-14.8-6.5-17.2-9.2-31.4-17.3c7.4,8.5,15.6,17.4,22.8,24c19.2,17.4,48.9,10.5,48.9,10.5C214.7,328.2,189.2,313.7,183.4,310.7
							z"/>
					</g>
				</g>
				<g>
					<path class="st3" d="M278,23.3c0,0,23.9,13.5,28.6,45.3c4.6,30.8-12,43.4-12,43.4c-22.3-13.8-34.6-37.6-32.2-58.6
						C264.7,31.6,278,23.3,278,23.3 M278,14.9c-1.5,0-3.1,0.4-4.4,1.3c-0.7,0.4-16.7,10.7-19.6,36.3c-2.7,24.8,11.8,51.5,36.2,66.6
						c1.4,0.8,2.9,1.3,4.4,1.3c1.8,0,3.6-0.6,5.1-1.7c0.8-0.6,20.5-16,15.2-51.3c-5.3-35.4-31.6-50.7-32.8-51.3
						C280.8,15.3,279.4,14.9,278,14.9L278,14.9z"/>
				</g>
				<path class="st10" d="M294.5,112c-22.3-13.8-34.6-37.6-32.2-58.6c2.4-21.8,15.7-30.1,15.7-30.1s23.9,13.5,28.6,45.3
					C311.1,99.4,294.5,112,294.5,112z"/>
				<path class="st5" d="M306.6,68.6c-2.4-15.8-9.5-27.1-16-34.5c0.2,0.5,0.3,1.1,0.6,1.6c5.2,8.7,13.1,35.8,3.5,56.9
					c-1.3,2.8-5.5-12.9-6.4-10.8c-1.4,3.6-0.3,13.2-1.3,13.2c-7.1-0.4-16.2-8.9-20.4-15.1c5.2,12.4,14.9,24,28,32.2
					C294.5,112,311.1,99.4,306.6,68.6z"/>
				<path class="st3" d="M295.3,115.5c-3.5-4.2-7.7-14.5-10.7-31.6c-1.2-7-2.7-17.2-3.3-23.7c-0.4-3.9,0.5-5.3,2.1-1.5
					c2.5,5.8,5.1,16.5,8.8,26.3c5.3,14,5.5,29.8,5.5,29.8L295.3,115.5z"/>
			</g>
			<text transform="matrix(1.0084 0 0 1 -5.9372 455.8423)"><tspan x="0" y="0" class="st9 st18 st19">HEALTHY</tspan><tspan x="315.2" y="0" class="st3 st18 st19"> </tspan><tspan x="331.2" y="0" class="st10 st18 st19">EATS</tspan></text>
		</g>
	</g>
</g>
</svg>
